<svg width="100" height="100" viewBox="0 0 100 100" fill="none" xmlns="http://www.w3.org/2000/svg">
<path d="M50.0057 0C22.3865 0 0 22.3865 0 50.0057C0 77.6135 22.3865 100 50.0057 100C77.6135 100 100 77.6135 100 50.0057C100 22.3865 77.6135 0 50.0057 0ZM49.9033 88.9546C28.3244 88.9546 10.8179 71.4481 10.8179 49.8692C10.8179 28.2903 28.3244 10.7838 49.9033 10.7838C71.4822 10.7838 88.9887 28.2903 88.9887 49.8692C88.9887 71.4481 71.4936 88.9546 49.9033 88.9546Z" fill="#862C2C"/>
<path d="M76.4305 63.5991C76.4305 63.5991 76.8059 61.3468 83.0055 56.8536C83.0055 56.8536 84.6435 55.3066 83.779 51.9054C83.779 51.9054 83.1761 51.3821 84.9848 49.3118C84.9734 49.3004 84.962 49.289 84.9393 49.2549C84.9279 49.2435 84.9165 49.2322 84.9051 49.2208C84.507 48.8454 82.8348 47.7875 81.0034 54.442C81.0034 54.442 80.0365 56.9787 79.6042 56.6147C79.4905 56.5123 79.4109 56.2052 79.3995 55.5909C79.354 52.6561 79.6156 52.2466 81.3788 50.4152C82.8348 48.8795 83.7448 49.1753 83.7676 46.559C83.7676 46.0243 83.7449 45.3646 83.6652 44.5456C83.6652 44.5456 82.3343 41.1899 82.8576 39.6997C82.8576 39.6883 82.869 39.6883 82.869 39.6769C82.869 39.6769 82.0158 39.6314 81.5608 41.5766C81.356 42.4184 81.2423 43.6242 81.2878 45.376C81.2878 45.376 81.2309 49.6076 80.1275 48.5497C80.1161 48.5383 80.1048 48.5269 80.0934 48.5155C79.9683 48.3904 79.8431 48.2084 79.7066 47.9581C79.7066 47.9581 79.1037 42.771 80.7304 41.6335C80.7304 41.6335 81.0262 41.4287 81.2992 40.9851C81.7769 40.223 82.2206 38.7555 81.1627 36.3781C79.4791 32.6129 79.8318 34.7514 78.8762 31.1341C78.8762 31.1227 78.8762 31.1114 78.8649 31.1C78.8649 31.1 78.0686 31.7484 78.1823 33.9552C78.2392 35.0813 78.535 36.6056 79.2857 38.6532C79.2857 38.6532 79.4336 41.6221 78.8876 41.133C78.8762 41.1216 78.8649 41.1102 78.8649 41.1102C78.7852 41.0192 78.6829 40.86 78.5691 40.5983C78.5691 40.5983 76.9538 38.1868 77.3292 33.0565C77.3519 32.738 77.3747 32.4309 77.3861 32.1579C77.5226 29.4506 77.2041 28.8818 76.1462 27.3803V24.8095L75.0996 24.6388C74.8266 24.5933 74.5423 24.5365 74.2579 24.4796H74.2465C74.1441 24.3089 74.0417 24.1383 73.9394 23.9449C73.9394 23.9336 73.928 23.9222 73.928 23.9222C73.928 23.9222 73.7687 24.1042 73.5754 24.3317C72.2103 24.0132 70.7884 23.5923 69.3324 23.0918C68.8888 22.7505 68.4565 22.4093 68.0811 22.0566C67.956 21.9429 67.8422 21.8178 67.7285 21.704C67.4213 21.3855 67.1825 21.0784 67.0346 20.7826C67.0232 20.7712 67.0232 20.7599 67.0232 20.7485C67.0232 20.7485 66.7047 21.3855 66.6364 22.0794C60.0957 19.4858 53.6686 15.8458 51.2798 14.4466L51.1206 14.3556C50.9158 14.2418 50.7566 14.1395 50.6428 14.0712C50.5518 14.0143 50.4949 13.9802 50.4494 13.9575L50.0172 13.7072L49.5963 13.9802L49.528 14.0257C47.7421 15.0836 40.735 19.156 33.6254 22.0112C33.6254 22.0112 33.614 22.0111 33.614 22.0225C33.5458 21.4424 33.3069 20.9191 33.25 20.7826C33.2386 20.7599 33.2386 20.7485 33.2386 20.7485C32.8974 21.4424 32.0215 22.25 31.0546 22.9894C29.5417 23.5241 28.0629 23.9791 26.6524 24.3089C26.5045 24.1383 26.3907 24.0018 26.3339 23.9449C26.3225 23.9336 26.3111 23.9222 26.3111 23.9222C26.2087 24.1042 26.1064 24.2748 26.004 24.4455C25.6627 24.5137 25.3215 24.582 24.9916 24.6388L23.9564 24.8095V27.5623C23.0009 28.9387 22.7051 29.5529 22.8416 32.1579C22.853 32.4309 22.8758 32.738 22.8985 33.0565C23.2739 38.1868 21.6586 40.5983 21.6586 40.5983C21.4197 41.1216 21.2605 41.2581 21.1467 41.1557C20.8282 40.8713 20.942 38.6532 20.942 38.6532C21.6927 36.6056 21.9885 35.0813 22.0454 33.9552C22.1364 32.0896 21.5904 31.3389 21.4197 31.1455C21.397 31.1227 21.3856 31.1227 21.3856 31.1227C21.3742 31.1114 21.3629 31.1 21.3629 31.1C20.396 34.7628 20.76 32.6015 19.0651 36.3781C17.9958 38.7555 18.4508 40.223 18.9286 40.9851C19.0651 41.2126 19.2129 41.3719 19.3153 41.4742C19.3381 41.497 19.3608 41.5084 19.3722 41.5311C19.4404 41.5994 19.4973 41.6335 19.4973 41.6335C19.5656 41.679 19.6224 41.7245 19.6793 41.7814C19.7021 41.8041 19.7248 41.8269 19.7362 41.8496C21.0557 43.317 20.5097 47.9581 20.5097 47.9581C20.0775 48.7317 19.759 48.8454 19.5314 48.6293C18.9627 48.0719 18.9286 45.3873 18.9286 45.3873C18.9854 43.6469 18.8603 42.4298 18.6555 41.588C18.4508 40.7121 18.1664 40.2457 17.9048 39.9841C17.8934 39.9727 17.882 39.9613 17.8707 39.9613C17.5749 39.6769 17.336 39.6883 17.336 39.6883C17.882 41.1671 16.5398 44.5569 16.5398 44.5569C16.4601 45.3759 16.4374 46.0357 16.4374 46.5704C16.4487 47.9354 16.699 48.5155 17.154 48.9705C17.1768 48.9933 17.1995 49.016 17.2109 49.0274C17.5863 49.3914 18.0868 49.6872 18.6897 50.2901C18.7465 50.3469 18.7921 50.3924 18.8489 50.4493C18.9741 50.5858 19.0992 50.711 19.2129 50.8361C19.2812 50.9043 19.3381 50.9726 19.4063 51.0408C19.4177 51.0522 19.4291 51.075 19.4518 51.0863C20.6462 52.4172 20.8396 53.0543 20.8055 55.6023C20.7941 56.683 20.5666 56.8081 20.2936 56.5351C20.2822 56.5237 20.2822 56.5123 20.2708 56.5123C19.8045 56.0118 19.2016 54.4534 19.2016 54.4534C18.4167 51.5755 17.6545 50.1422 17.0061 49.471C16.9834 49.4597 16.972 49.4369 16.9606 49.4256C16.9493 49.4142 16.9493 49.4028 16.9379 49.4028C16.9265 49.3914 16.9038 49.3687 16.8924 49.3573C15.9369 48.4814 15.2771 49.2663 15.2202 49.3232C17.0289 51.3935 16.426 51.9167 16.426 51.9167C15.6411 55.0336 16.9493 56.592 17.1768 56.8308C17.1881 56.8422 17.1995 56.8536 17.2109 56.865C19.1561 58.2755 20.5325 59.4699 21.4994 60.4368C21.7951 60.7326 22.0454 60.9942 22.2615 61.2445C22.3298 61.3241 22.3866 61.3923 22.4549 61.4606C23.6607 62.8825 23.7858 63.5991 23.7858 63.5991C23.7972 63.5991 23.7972 63.6105 23.8085 63.6105C23.854 63.6446 23.8995 63.6901 23.945 63.7243C23.9564 63.7356 23.9564 63.7356 23.9678 63.747C24.5138 64.3613 24.0247 65.3851 22.5914 63.9404C22.5686 63.9176 22.5459 63.8949 22.5231 63.8721C22.125 63.4513 21.6472 62.8484 21.1126 61.9952C20.6576 61.2786 20.2367 60.7212 19.85 60.2889C19.7589 60.1979 19.6793 60.1069 19.5997 60.0159C19.5769 59.9932 19.5542 59.9704 19.5314 59.9477C17.7455 58.1845 16.6649 58.9808 16.6649 58.9808C20.0888 64.0541 19.3722 63.838 19.3722 63.838C19.5428 64.1679 19.7476 64.4523 19.9751 64.7253C20.0092 64.7594 20.0433 64.8049 20.0661 64.839C20.123 64.9073 20.1798 64.9642 20.2367 65.021C22.1364 66.9321 25.2532 67.08 26.4362 67.0572C26.4362 67.0686 26.4476 67.0686 26.4476 67.08C27.0391 68.1151 27.7671 69.1958 28.6658 70.2992C27.9833 70.3674 26.2542 69.3323 24.4342 67.9217C21.7724 65.8628 20.4756 68.0241 20.4756 68.0241C20.487 68.0241 20.4983 68.0241 20.5097 68.0241C20.8055 68.0127 21.6359 67.9786 23.0237 69.2868C23.035 69.2981 23.035 69.2981 23.0464 69.3095C23.0692 69.3323 23.1033 69.355 23.126 69.3891C23.2284 69.4802 23.3308 69.5939 23.4332 69.6963C23.7744 70.0489 24.1384 70.4925 24.5252 71.0158C24.6048 71.1182 24.6844 71.2206 24.7754 71.3116C24.8551 71.3912 24.9233 71.4708 25.0143 71.5391C26.5386 72.9155 29.1208 73.052 31.0887 72.9269C31.8736 73.6776 32.7381 74.4398 33.6937 75.1905C33.6937 75.1905 33.6937 75.1905 33.6823 75.1905C32.4424 74.8038 30.8612 73.6094 30.8612 73.6094C26.55 72.6994 27.1529 74.7014 27.1529 74.7014H27.1642C29.4166 74.7014 31.1228 77.6362 34.2283 78.2505C35.6502 78.5349 36.4351 78.0002 36.8674 77.3518C38.0276 78.0685 39.1424 78.7737 40.2003 79.4563C40.3027 79.5245 40.4051 79.5814 40.5074 79.6496C43.3968 81.5038 45.8538 83.1419 47.4464 84.2794C47.4691 84.2908 47.4919 84.3135 47.5032 84.3249C48.0948 84.7571 48.5725 85.1098 48.891 85.3714L49.8465 86.8729L50.7224 85.7468C50.8134 85.6444 50.9499 85.5079 51.1092 85.3828L51.1206 85.3714C52.7927 83.9722 58.3325 80.389 63.3717 77.2836C63.3717 77.295 63.3831 77.295 63.3831 77.3063C63.44 77.3973 63.5082 77.4883 63.5879 77.5793C63.622 77.6248 63.6675 77.6703 63.7016 77.7045C63.713 77.7158 63.713 77.7272 63.7244 77.7272C64.2021 78.1822 64.9302 78.478 66.0563 78.2505C69.1618 77.6362 70.8794 74.7014 73.1317 74.7014C73.1317 74.7014 73.2796 74.2123 72.9042 73.8255C72.8928 73.8141 72.8815 73.8027 72.8815 73.8027C72.4833 73.4274 71.5506 73.1657 69.4234 73.6094C69.4234 73.6094 67.7285 74.9062 66.4658 75.236C66.4431 75.2474 66.4203 75.2474 66.3976 75.2588C67.3645 74.508 68.2631 73.7231 69.0935 72.9269C71.3003 73.0975 74.3489 72.9269 75.7708 71.0158C78.1482 67.8421 79.4905 68.0241 79.8204 68.0355C79.8204 68.0355 79.7521 67.9217 79.6042 67.7625C79.5701 67.7284 79.536 67.6942 79.4905 67.6487C78.9559 67.1368 77.7501 66.4543 75.8504 67.9331C73.9507 69.4005 72.1648 70.4584 71.5392 70.2992C71.5278 70.2992 71.5164 70.2878 71.5051 70.2878C72.3468 69.2413 73.0862 68.172 73.7119 67.0686C74.9631 67.1027 79.2289 67.0003 80.901 63.8835C80.901 63.8835 80.9124 63.8721 80.9124 63.8608C80.9124 63.8608 80.901 63.8608 80.8897 63.8608C80.7987 63.8153 80.6849 63.3603 83.6197 59.0035C83.6197 59.0035 83.6197 59.0035 83.6197 58.9922C83.6197 58.9922 81.8793 57.7067 79.172 61.9952C77.5567 64.5547 76.5557 64.8845 76.2258 64.5774C75.93 64.3727 76.021 63.8835 76.4305 63.5991ZM23.8882 37.5043V39.9613C23.3877 40.7803 22.6596 41.497 22.6141 41.5539C22.0568 40.8941 23.1488 38.2323 23.8882 37.5043ZM20.9079 46.9685C21.1695 44.9096 22.3639 42.3843 23.8882 43.0099V43.6697C23.1602 44.3067 21.852 45.7627 21.7496 47.9695C21.7496 47.9695 21.2832 48.4928 21.0216 48.2539C20.8851 48.1288 20.8055 47.7648 20.9079 46.9685ZM20.9079 51.5186C21.761 49.6872 23.6493 49.5507 23.8882 49.5393V49.562C21.2377 52.1897 21.8634 56.6602 21.8634 56.6602C21.8179 56.6943 21.7838 56.6943 21.7383 56.6602C21.2946 56.2735 20.9079 51.5186 20.9079 51.5186ZM23.6834 62.5754C23.2398 62.1203 22.853 61.3923 22.8303 60.2321C22.7848 58.4575 23.4332 57.4906 23.8996 57.0129V58.2528C23.8768 58.594 23.7744 60.4937 24.6389 63.201C24.3887 63.11 24.0588 62.9394 23.7403 62.6322C23.7175 62.6209 23.7062 62.5981 23.6834 62.5754ZM33.3752 71.7211C33.2386 71.596 33.1135 71.4708 32.977 71.3571C32.9088 71.3002 32.8519 71.2319 32.7836 71.1751C32.6926 71.0841 32.5903 70.9931 32.5106 70.9021C32.4879 70.8793 32.4651 70.8566 32.4424 70.8338C32.3172 70.7087 32.2035 70.5949 32.0897 70.4698C32.0215 70.4015 31.9646 70.3333 31.8964 70.265C29.4507 67.6715 28.1311 65.2372 27.4145 63.4171C26.2542 60.4709 26.3907 58.412 26.4021 58.3893V58.3551V26.9025C34.9336 25.0938 46.1041 18.8829 49.9944 16.6193C53.1795 18.4848 64.7936 25.037 73.6209 26.9025V58.3665V58.4461C73.6322 58.594 73.7232 60.6074 72.5743 63.4968C71.5051 66.1813 69.0935 70.2082 63.6902 74.0985C56.5352 78.4666 52.0078 81.4242 49.9262 83.1077C47.8104 81.4128 43.3513 78.4552 36.3327 74.1213C35.2293 73.3364 34.2624 72.5401 33.3979 71.7438C33.3979 71.7324 33.3865 71.7325 33.3752 71.7211ZM76.2144 49.5279C76.2144 49.5279 77.5567 49.5393 78.5691 50.5631C78.5919 50.5858 78.6146 50.5972 78.626 50.62C78.8535 50.8588 79.0582 51.1546 79.2175 51.5072C79.2175 51.5072 78.7739 56.9787 78.2847 56.6602C78.2733 56.6602 78.2733 56.6488 78.262 56.6488C78.262 56.6488 78.899 52.1556 76.2144 49.5279ZM77.8183 43.4763C78.5464 44.2498 79.0582 45.6945 79.2175 46.9571C79.4564 48.7772 78.7739 48.3221 78.4895 48.0719C78.4667 48.0491 78.444 48.0264 78.4326 48.015C78.3985 47.9809 78.3757 47.9581 78.3757 47.9581C78.2847 46.1267 77.3633 44.8072 76.6467 44.0564C76.5671 43.9768 76.4874 43.8972 76.4192 43.8289C76.3168 43.7265 76.2144 43.6355 76.1348 43.5673C76.1234 43.5559 76.1234 43.5559 76.112 43.5445V43.0554C76.7377 42.7255 77.3178 42.9303 77.7956 43.4308C77.807 43.4649 77.8183 43.4763 77.8183 43.4763ZM76.2144 37.4815C76.2258 37.4929 76.2258 37.4929 76.2372 37.5043C76.2485 37.5156 76.2599 37.527 76.2713 37.5384C77.0107 38.3119 78.0686 40.9055 77.5226 41.5539C77.5226 41.5539 77.5226 41.5539 77.5112 41.5425C77.4998 41.5311 77.4885 41.5197 77.4657 41.4856C77.2496 41.2695 76.5443 40.5187 76.1234 39.7338V37.3905C76.1462 37.4133 76.1803 37.436 76.2144 37.4815ZM76.112 58.2983V56.8991C76.1348 56.9218 76.1575 56.9332 76.1803 56.956C76.2144 56.9901 76.2599 57.0356 76.294 57.0697C76.7604 57.5589 77.3519 58.5258 77.3064 60.2321C77.2496 62.4047 75.9414 63.0645 75.3727 63.2465C75.3613 63.2465 75.3499 63.2579 75.3385 63.2579C76.2144 60.5619 76.1348 58.6509 76.112 58.2983Z" fill="#862C2C"/>
<path d="M76.4417 63.6219C76.4417 63.6219 76.8171 61.3696 83.0166 56.8764C83.0166 56.8764 84.6547 55.3293 83.8015 51.9281C83.8015 51.9281 83.1986 51.4048 85.0073 49.3345C84.9959 49.3232 84.9732 49.3004 84.939 49.2663C84.9277 49.2549 84.9163 49.2435 84.9049 49.2322C84.4726 48.8454 82.8232 47.924 81.0259 54.4648C81.0259 54.4648 80.0249 57.0925 79.604 56.6147C79.5017 56.501 79.4334 56.1938 79.422 55.6137C79.3765 52.6789 79.6382 52.2694 81.39 50.4379C82.846 48.9023 83.7674 49.198 83.7788 46.5817C83.7788 46.0471 83.7446 45.3873 83.6764 44.5683C83.6764 44.5683 82.3341 41.1785 82.8801 39.6997C82.8801 39.6997 82.8687 39.6997 82.846 39.6997C82.6867 39.7111 81.9701 39.8703 81.5606 41.5994C81.3558 42.4411 81.2421 43.6469 81.2876 45.3987C81.2876 45.3987 81.2307 49.6758 80.1045 48.5497C80.0932 48.5383 80.0818 48.5269 80.0704 48.5155C79.9567 48.3904 79.8315 48.2198 79.695 47.9809C79.695 47.9809 79.0921 42.7938 80.7188 41.6562C80.7188 41.6562 81.0146 41.4515 81.2876 41.0079C81.7653 40.2457 82.209 38.7783 81.1511 36.4009C79.4561 32.6243 79.8315 34.7856 78.8533 31.1227C78.8533 31.1227 78.8533 31.1227 78.8419 31.1341C78.7395 31.2251 78.0684 31.9304 78.1707 33.9779C78.2276 35.1041 78.5234 36.6284 79.2741 38.6759C79.2741 38.6759 79.4334 41.7245 78.8533 41.133C78.8419 41.1216 78.8305 41.1102 78.8305 41.1102C78.7509 41.0192 78.6599 40.86 78.5575 40.6211C78.5575 40.6211 76.9422 38.2095 77.3176 33.0793C77.3404 32.7494 77.3631 32.4536 77.3745 32.1806C77.511 29.4733 77.1925 28.9046 76.1346 27.403V24.8436H76.1118L75.0881 24.673C74.8037 24.6275 74.5193 24.5706 74.2349 24.5137C74.2349 24.5023 74.2235 24.5023 74.2235 24.491C74.1212 24.3203 74.0188 24.1383 73.905 23.9449C73.905 23.9449 73.905 23.9449 73.8937 23.9449C73.8709 23.9791 73.723 24.1383 73.541 24.3545C72.176 24.0359 70.7541 23.6151 69.298 23.1032C68.843 22.7619 68.3994 22.4093 68.024 22.0453C67.8989 21.9315 67.7851 21.8064 67.6714 21.6926C67.3642 21.3741 67.1254 21.0556 66.9775 20.7599C66.9775 20.7599 66.9775 20.7599 66.9775 20.7712C66.932 20.8509 66.659 21.4424 66.5907 22.0908C60.0499 19.4972 53.6229 15.8571 51.2341 14.458L51.0749 14.367C50.8701 14.2532 50.7108 14.1508 50.5971 14.0826C50.5061 14.0257 50.4492 13.9916 50.4037 13.9688L49.9715 13.7186L49.5506 13.9916L49.4823 14.0371C47.6964 15.095 40.6779 19.1787 33.5569 22.0339C33.5569 22.0225 33.5569 22.0112 33.5569 22.0112C33.4659 21.3514 33.1816 20.7712 33.1816 20.7712C33.1816 20.7712 33.1816 20.7826 33.1702 20.7826C32.8289 21.4765 31.953 22.2728 30.9975 23.0122C29.4846 23.5468 28.0058 24.0018 26.5953 24.3317C26.5953 24.3203 26.5839 24.3203 26.5725 24.309C26.4019 24.1042 26.254 23.9449 26.254 23.9449C26.1516 24.127 26.0493 24.2976 25.9469 24.4682C25.6056 24.5365 25.2644 24.6047 24.9345 24.6616L23.8993 24.8322V27.585C22.9438 28.9614 22.6481 29.5757 22.7846 32.1806C22.7959 32.4536 22.8187 32.7494 22.8414 33.0793C23.2168 38.2095 21.6015 40.6211 21.6015 40.6211C21.3513 41.1785 21.1806 41.2922 21.0783 41.1557C20.7825 40.8031 20.8849 38.6759 20.8849 38.6759C21.6357 36.6284 21.9314 35.1041 21.9883 33.9779C22.0907 32.0328 21.4764 31.2934 21.3399 31.1455C21.3172 31.1227 21.3058 31.1227 21.3058 31.1227C20.3389 34.7856 20.7029 32.6243 19.008 36.4009C17.9387 38.7783 18.3937 40.2457 18.8715 41.0079C18.9966 41.2126 19.1331 41.3719 19.2355 41.4742C19.2582 41.497 19.281 41.5084 19.2924 41.5311C19.3834 41.6107 19.4289 41.6449 19.4289 41.6449C19.4857 41.679 19.5426 41.7245 19.5881 41.7814C19.6109 41.8041 19.6336 41.8269 19.645 41.8496C20.9873 43.2943 20.4413 47.9695 20.4413 47.9695C19.9976 48.7658 19.6677 48.8682 19.4402 48.6179C18.8828 48.0264 18.8487 45.3987 18.8487 45.3987C18.9056 43.6583 18.7805 42.4411 18.5757 41.5994C18.3596 40.7007 18.0638 40.223 17.8136 39.9727C17.8022 39.9613 17.7908 39.9499 17.7794 39.9499C17.4951 39.6883 17.2562 39.6997 17.2562 39.6997C17.8022 41.1785 16.4599 44.5683 16.4599 44.5683C16.3803 45.3873 16.3575 46.0471 16.3575 46.5817C16.3689 47.9354 16.6192 48.5042 17.0514 48.9592C17.0742 48.9819 17.0969 49.0047 17.1083 49.016C17.4837 49.38 17.9842 49.6758 18.5871 50.2787C18.644 50.3356 18.6895 50.3811 18.7463 50.4379C18.8715 50.5745 18.9966 50.6996 19.1103 50.8247C19.1786 50.893 19.2355 50.9612 19.3037 51.0295C19.3151 51.0408 19.3265 51.0636 19.3492 51.075C20.5664 52.4173 20.7598 53.0543 20.7256 55.6137C20.7143 56.7285 20.4754 56.8309 20.191 56.5351C20.1796 56.5237 20.1796 56.5123 20.1682 56.5123C19.7019 55.9891 19.1217 54.4762 19.1217 54.4762C18.3255 51.5641 17.5519 50.1308 16.9035 49.4711C16.8808 49.4597 16.8694 49.4369 16.858 49.4256C16.8467 49.4142 16.8467 49.4028 16.8353 49.4028C16.8239 49.3914 16.8012 49.3687 16.7898 49.3573C15.8456 48.5155 15.1973 49.2777 15.1404 49.3459C16.949 51.4162 16.3462 51.9395 16.3462 51.9395C15.584 54.9653 16.8012 56.5351 17.0742 56.8309C17.0856 56.8422 17.0969 56.8536 17.1083 56.865C17.1197 56.8764 17.1311 56.8877 17.1311 56.8877C19.0648 58.2869 20.4299 59.4813 21.3968 60.4368C21.6925 60.7326 21.9428 60.9942 22.1589 61.2445C22.2272 61.3241 22.284 61.3923 22.3523 61.4606C23.5126 62.8142 23.6832 63.5309 23.6946 63.6105V63.6219C23.7401 63.656 23.7856 63.6901 23.8311 63.7356C23.8425 63.747 23.8425 63.747 23.8538 63.7584C24.434 64.3727 23.9448 65.4419 22.4774 63.9518C22.4547 63.929 22.4319 63.9063 22.4092 63.8835C22.011 63.4626 21.5447 62.8711 21.0214 62.0294C20.5664 61.3013 20.1341 60.7439 19.736 60.3003C19.645 60.2093 19.5654 60.1183 19.4857 60.0273C19.463 60.0046 19.4402 59.9818 19.4175 59.9591C17.6429 58.23 16.5737 59.0149 16.5737 59.0149C19.9976 64.0883 19.281 63.8721 19.281 63.8721C19.4516 64.1907 19.645 64.475 19.8611 64.7367C19.8952 64.7708 19.9294 64.8163 19.9521 64.8504C20.009 64.9187 20.0659 64.9755 20.1227 65.0324C22.011 66.9662 25.1392 67.1027 26.3336 67.08H26.345C26.9365 68.1151 27.6646 69.2071 28.5746 70.3219C27.8921 70.3902 26.163 69.355 24.343 67.9445C21.8404 66.0107 20.5436 67.7966 20.3958 68.0241C20.3844 68.0355 20.3844 68.0469 20.3844 68.0469C20.6346 68.0355 21.4764 67.9331 22.9097 69.2868C22.9211 69.2981 22.9211 69.2982 22.9324 69.3095C22.9552 69.3323 22.9893 69.355 23.0121 69.3892C23.1144 69.4802 23.2168 69.5939 23.3192 69.6963C23.6605 70.0603 24.0358 70.4926 24.434 71.0386C24.5022 71.1409 24.5818 71.2319 24.6615 71.323C24.7411 71.4026 24.8094 71.4822 24.9004 71.5505C26.4133 72.9496 29.0182 73.0975 30.9975 72.9496C31.771 73.689 32.6242 74.4398 33.5797 75.1905C33.5911 75.2019 33.6024 75.2019 33.6024 75.2133C32.3625 74.8379 30.77 73.6207 30.77 73.6207C26.7204 72.7676 27.0048 74.4853 27.0503 74.7014C27.0503 74.7128 27.0617 74.7242 27.0617 74.7242C29.314 74.7128 31.0316 77.6476 34.1371 78.2732C35.559 78.5576 36.3439 78.023 36.7875 77.3746C37.925 78.0799 39.0398 78.7851 40.0977 79.4563C40.2001 79.5245 40.3025 79.5814 40.4049 79.6496C43.2942 81.4924 45.8081 83.1419 47.3438 84.2794C47.3665 84.2908 47.3893 84.3135 47.4006 84.3249C48.0263 84.7913 48.4927 85.1553 48.7543 85.4169L49.8236 87.0777L50.654 85.7695C50.745 85.6672 50.8815 85.5307 51.0407 85.4055L51.0521 85.3942C52.7243 83.995 58.264 80.4118 63.3033 77.3063C63.3033 77.3063 63.3033 77.3063 63.3146 77.3063C63.4057 77.4428 63.508 77.5793 63.6218 77.7045C63.6332 77.7158 63.6332 77.7272 63.6445 77.7272C64.1109 78.205 64.8503 78.5007 65.9992 78.2732C69.116 77.659 70.8223 74.7242 73.0746 74.7242C73.0746 74.7242 73.2339 74.2123 72.8244 73.8255C72.813 73.8141 72.8016 73.8028 72.8016 73.8028C72.3921 73.4387 71.448 73.1999 69.3663 73.6321C69.3663 73.6321 67.6031 74.9744 66.3291 75.2702C66.3405 75.2588 66.3632 75.2474 66.3746 75.2247C67.3187 74.4853 68.206 73.7231 69.0137 72.9382C71.2205 73.1089 74.269 72.9382 75.6909 71.0272C78.057 67.8649 79.4107 68.0355 79.7405 68.0469C79.7405 68.0469 79.6609 67.9217 79.5017 67.7511C79.4675 67.717 79.4334 67.6829 79.3879 67.6374C78.8419 67.1255 77.6475 66.4885 75.7706 67.9331C73.8481 69.4233 72.0167 70.5039 71.4366 70.2878L71.448 70.2764C72.2897 69.2299 73.0177 68.1606 73.6434 67.0686C74.8947 67.1141 79.1831 67.0003 80.8439 63.8608C80.8439 63.8608 80.8326 63.8608 80.8098 63.8608C80.7984 63.8608 80.7984 63.8494 80.7871 63.838C80.7188 63.7129 80.8553 62.9849 83.5399 59.0035C83.5399 59.0035 83.5285 59.0035 83.5171 58.9922C83.301 58.8557 81.6175 58.0139 79.0921 62.018C77.4427 64.6343 76.4303 64.9187 76.1232 64.5774C75.9639 64.3613 76.055 63.8949 76.4417 63.6219ZM75.3724 63.2579C76.237 60.5733 76.1573 58.6736 76.1346 58.321V56.9219C76.1459 56.9332 76.1573 56.9446 76.1801 56.956C76.2142 56.9901 76.2597 57.0356 76.2938 57.0697C76.7602 57.5475 77.3745 58.5258 77.329 60.2548C77.2721 62.4616 75.9071 63.11 75.3611 63.2806C75.3724 63.2806 75.3724 63.2693 75.3724 63.2579ZM78.2845 56.6716C78.3073 56.5123 78.8419 52.3035 76.3848 49.7099C76.3507 49.6758 76.3166 49.6303 76.2711 49.5962C76.2597 49.5848 76.237 49.5621 76.2256 49.5507C76.2256 49.5507 77.5565 49.5621 78.5575 50.5631C78.5803 50.5858 78.603 50.5972 78.6144 50.62C78.8419 50.8588 79.058 51.166 79.2287 51.53C79.24 51.53 78.785 57.1721 78.2845 56.6716ZM79.24 46.9912C79.4789 48.8568 78.7509 48.3335 78.4893 48.0833C78.4665 48.0605 78.4438 48.0378 78.4324 48.0264C78.4096 48.0036 78.3983 47.9923 78.3983 47.9923C78.3073 46.1381 77.3745 44.8186 76.6465 44.0678C76.5668 43.9882 76.4872 43.9085 76.419 43.8403C76.3166 43.7379 76.2142 43.6583 76.1346 43.5787V43.0895C76.7488 42.771 77.3176 42.9644 77.7954 43.4535C77.8067 43.4649 77.8181 43.4763 77.8181 43.4877C78.5575 44.2498 79.0808 45.7058 79.24 46.9912ZM76.1346 39.7566V37.4133C76.1687 37.436 76.2028 37.4701 76.237 37.5043C76.2483 37.5156 76.2597 37.527 76.2711 37.5384C77.0105 38.2778 78.0911 40.9282 77.5451 41.5766C77.5451 41.5766 77.5337 41.5652 77.5224 41.5539C77.5224 41.5539 77.5224 41.5539 77.511 41.5425C77.4996 41.5311 77.4769 41.5084 77.4655 41.4856C77.2152 41.2354 76.5441 40.5187 76.1346 39.7566ZM21.7722 47.9923C21.7722 47.9923 21.283 48.5383 21.0328 48.2653C20.9076 48.1174 20.8508 47.7534 20.9418 46.9912C21.2034 44.9437 22.3864 42.4298 23.8993 43.0327C23.9107 43.0327 23.9107 43.0326 23.9221 43.044V43.7038C23.1941 44.3294 21.8745 45.7855 21.7722 47.9923ZM22.6367 41.5652C22.6253 41.5539 22.6253 41.5539 22.6139 41.5425C22.102 40.86 23.1599 38.2892 23.888 37.5384C23.8993 37.527 23.8993 37.527 23.9107 37.5156V39.9727C23.3988 40.8258 22.6367 41.5652 22.6367 41.5652ZM21.8859 56.6716C21.8404 56.7171 21.7949 56.7057 21.738 56.6602C21.2944 56.1483 20.9304 51.5414 20.9304 51.5414C21.7608 49.7554 23.5808 49.5734 23.888 49.5621C23.8993 49.5621 23.8993 49.5621 23.9107 49.5621V49.5848C21.2603 52.2125 21.8859 56.6716 21.8859 56.6716ZM23.7401 62.6322C23.7173 62.6095 23.706 62.5981 23.6832 62.5754C23.2509 62.1204 22.8756 61.3923 22.8528 60.2548C22.8073 58.503 23.433 57.5361 23.8993 57.0584L23.9221 57.0356V58.2755C23.8993 58.6168 23.797 60.5164 24.6615 63.2238C24.3998 63.1328 24.0586 62.9507 23.7401 62.6322ZM49.9487 83.1305C47.8329 81.4356 43.3738 78.478 36.3553 74.144C35.2519 73.3477 34.2622 72.5401 33.3977 71.7438C33.3863 71.7325 33.3863 71.7325 33.3749 71.7211C33.2384 71.596 33.1133 71.4822 32.9768 71.3571C32.9086 71.3002 32.8517 71.2319 32.7834 71.1751C32.6924 71.0841 32.59 70.9931 32.5104 70.9021C32.4877 70.8793 32.4649 70.8566 32.4422 70.8338C32.317 70.7087 32.2033 70.5949 32.0895 70.4698C32.0213 70.4016 31.9644 70.3333 31.8962 70.265C29.4618 67.6829 28.1423 65.2599 27.437 63.4399C26.2768 60.4937 26.4133 58.4348 26.4246 58.412V58.3779V26.9253C34.9561 25.1052 46.1266 18.9057 50.017 16.642C53.1907 18.5076 64.7934 25.0483 73.6206 26.9253C73.632 26.9253 73.632 26.9253 73.6434 26.9253V58.4006V58.4803C73.6548 58.6281 73.7458 60.6416 72.5969 63.5195C71.5276 66.2041 69.116 70.2309 63.7128 74.1213C56.5577 78.4894 52.0304 81.4469 49.9487 83.1305Z" fill="#862C2C"/>
<path d="M72.5743 63.4968C71.5051 66.1813 69.0935 70.2082 63.6903 74.0985C56.5352 78.4666 52.0078 81.4242 49.9262 83.1077C47.8104 81.4128 43.3513 78.4552 36.3327 74.1213C35.2293 73.3364 34.2624 72.5401 33.3979 71.7438C33.3865 71.7325 33.3865 71.7325 33.3752 71.7211C33.2387 71.596 33.1135 71.4708 32.977 71.3571C32.9088 71.3002 32.8519 71.2319 32.7836 71.1751C32.6926 71.0841 32.6016 70.9931 32.5106 70.9021C32.4879 70.8793 32.4651 70.8566 32.4424 70.8338C32.3173 70.7087 32.2035 70.5949 32.0898 70.4698C32.0215 70.4016 31.9646 70.3333 31.8964 70.265C29.4621 67.6829 28.1425 65.2599 27.4373 63.4399C26.277 60.4937 26.4135 58.4348 26.4249 58.412V58.3779V26.9253C34.9563 25.1052 46.1268 18.9057 50.0172 16.642C53.1909 18.5076 64.7937 25.0483 73.6209 26.9253V58.3665V58.4461C73.6209 58.594 73.7233 60.6074 72.5743 63.4968Z" fill="white"/>
<path d="M31.1568 93.5844L29.7349 92.9928L29.8145 92.8108C29.9169 92.8108 30.0079 92.8108 30.1102 92.8222C30.2012 92.8336 30.2922 92.845 30.3719 92.8563L32.3739 91.6847C32.3284 91.5027 32.2716 91.2866 32.2033 91.0591C32.135 90.8202 32.0668 90.5813 31.9872 90.331C31.9075 90.0808 31.8393 89.8305 31.7483 89.5689C31.6687 89.3073 31.589 89.0684 31.498 88.8295L31.2591 88.5451L31.3274 88.3859L32.135 88.7157L32.2943 88.966C32.4194 89.3641 32.5446 89.7964 32.6469 90.24C32.7493 90.6837 32.8517 91.1387 32.9427 91.5823L33.2612 91.7188L34.012 89.9102C33.83 89.7964 33.6935 89.6713 33.5911 89.5575L33.6707 89.3755L35.2974 90.058L35.2177 90.24C35.013 90.24 34.8196 90.2173 34.6262 90.1718L33.0337 93.9825C33.2157 94.0849 33.3749 94.21 33.4887 94.3579L33.4091 94.5399L31.7824 93.8574L31.862 93.6754C31.9417 93.6754 32.0327 93.6754 32.1237 93.6867C32.2147 93.6981 32.317 93.7095 32.4081 93.7209L33.1474 91.9349L32.7266 91.8667L30.8155 93.0611C30.8951 93.118 30.9634 93.1749 31.0316 93.2317C31.0999 93.2886 31.1568 93.3455 31.2136 93.4137L31.1568 93.5844Z" fill="white"/>
<path d="M29.7237 87.4986L31.2707 88.3517L31.1683 88.5337C30.9636 88.5224 30.7702 88.4769 30.5882 88.4086L28.5861 92.0259C28.6544 92.0942 28.7227 92.1624 28.8023 92.2307C28.8705 92.2989 28.9388 92.3786 29.007 92.4582L28.9047 92.6402L27.3576 91.7871L27.46 91.6051C27.5396 91.6051 27.6306 91.6164 27.7103 91.6392C27.7899 91.6619 27.8923 91.6733 27.9946 91.7074L29.462 89.057L29.7805 88.6361L29.2232 88.9546L26.0608 90.4448L25.9812 90.5927C26.0608 90.6609 26.1405 90.7405 26.2087 90.8088C26.277 90.877 26.3338 90.9453 26.3907 91.0135L26.2997 91.1842L24.7527 90.331L24.8551 90.149C24.9461 90.1604 25.0371 90.1718 25.1394 90.1945C25.2418 90.2173 25.3328 90.24 25.4352 90.2742L27.4372 86.6568C27.2666 86.5203 27.1301 86.3724 27.0164 86.2359L27.1187 86.0539L28.6658 86.9071L28.5634 87.0891C28.4838 87.0777 28.3928 87.0663 28.3018 87.0549C28.2108 87.0436 28.1198 87.0095 28.0174 86.9753L26.5613 89.6144L26.2428 90.0353L26.7661 89.7281L29.9626 88.2266L30.0422 88.0901C29.9626 88.0219 29.8829 87.9536 29.8147 87.8853C29.7464 87.8171 29.6895 87.7488 29.6327 87.6692L29.7237 87.4986Z" fill="white"/>
<path d="M22.7847 89.7054C22.7279 89.7964 22.6482 89.8419 22.5572 89.8533C22.4662 89.8533 22.3752 89.8305 22.2842 89.7623C22.1932 89.694 22.125 89.6258 22.1022 89.5348C22.0681 89.4438 22.0908 89.3641 22.1477 89.2618C22.2046 89.1708 22.2842 89.1253 22.3752 89.1253C22.4662 89.1139 22.5572 89.148 22.6596 89.2163C22.7506 89.2731 22.8189 89.3528 22.8416 89.4438C22.8644 89.5348 22.8416 89.6144 22.7847 89.7054ZM25.2987 84.7685L26.7775 85.7696L26.6637 85.9402C26.4703 85.9061 26.2769 85.8492 26.1063 85.7696L23.7971 89.1935C23.8654 89.2618 23.9223 89.33 23.9905 89.4096C24.0474 89.4893 24.1043 89.5689 24.1611 89.6485L24.0474 89.8191L22.5686 88.8181L22.6824 88.6475C22.7734 88.6589 22.8644 88.6816 22.9667 88.7158C23.0691 88.7499 23.1601 88.7726 23.2397 88.8181L25.5489 85.3942C25.4807 85.3259 25.4124 85.2463 25.3442 85.178C25.2759 85.0984 25.219 85.0188 25.1735 84.9505L25.2987 84.7685ZM23.8085 90.3879C23.7516 90.4789 23.672 90.5244 23.581 90.5358C23.49 90.5472 23.399 90.513 23.2966 90.4448C23.2056 90.3879 23.1374 90.3083 23.1146 90.2173C23.0805 90.1263 23.1032 90.0353 23.1601 89.9443C23.217 89.8533 23.2966 89.8078 23.3876 89.8078C23.4786 89.8078 23.5696 89.8305 23.6606 89.8988C23.7516 89.967 23.8199 90.0353 23.8426 90.1263C23.8768 90.2173 23.8654 90.3083 23.8085 90.3879Z" fill="white"/>
<path d="M24.9119 84.541L24.7867 84.7003C24.582 84.6548 24.4 84.5752 24.2294 84.4728L21.6699 87.7147C21.7268 87.783 21.795 87.8626 21.8519 87.9536C21.9088 88.0332 21.9657 88.1242 22.0112 88.2152L21.886 88.3745L21.3059 87.9195C21.2377 87.8626 21.1694 87.8171 21.1012 87.7716C21.0329 87.7261 20.9647 87.6806 20.8964 87.6237C20.8281 87.5782 20.7485 87.5213 20.6689 87.4531C20.5893 87.3962 20.4983 87.328 20.3959 87.237C20.248 87.1232 20.1115 86.9981 19.975 86.8502C19.8385 86.7023 19.7361 86.5545 19.6679 86.3952C19.5996 86.2359 19.5769 86.0653 19.5882 85.8833C19.611 85.7013 19.6906 85.5193 19.8385 85.3259C19.9181 85.2349 19.9977 85.1439 20.1115 85.0757C20.2139 85.0074 20.3276 84.9505 20.4528 84.9164C20.5779 84.8823 20.7144 84.8709 20.8509 84.8823C20.9874 84.8937 21.1353 84.9278 21.2832 84.996L21.3059 84.9733C21.2149 84.8709 21.1239 84.7572 21.0557 84.6207C20.9874 84.4955 20.9305 84.359 20.9078 84.2111C20.885 84.0746 20.885 83.9268 20.9192 83.7789C20.9533 83.631 21.0329 83.4718 21.1467 83.3239C21.3059 83.1305 21.4765 82.994 21.6813 82.9144C21.886 82.8461 22.0908 82.812 22.2956 82.8347C22.5117 82.8575 22.7164 82.9144 22.9326 83.0167C23.1487 83.1191 23.3421 83.2329 23.5241 83.3807C23.6492 83.4831 23.7857 83.5969 23.945 83.7334C24.0928 83.8699 24.2521 83.995 24.4 84.1201L24.9119 84.541ZM22.0453 85.6672C21.9884 85.6217 21.9088 85.5648 21.8178 85.4965C21.7268 85.4397 21.6472 85.3828 21.5903 85.3487C21.3742 85.269 21.1694 85.2577 20.9533 85.3032C20.7485 85.3487 20.5665 85.4624 20.43 85.633C20.2366 85.8719 20.1684 86.1108 20.2139 86.3497C20.2594 86.5886 20.4073 86.7933 20.6461 86.9867C20.7599 87.0777 20.8623 87.146 20.9419 87.2142C21.0215 87.2711 21.0898 87.3166 21.1467 87.3507L22.3069 85.8833L22.0453 85.6672ZM23.2625 83.6424C23.126 83.54 22.9894 83.4604 22.8416 83.4149C22.6937 83.3694 22.5572 83.3466 22.4093 83.3466C22.2614 83.3466 22.1363 83.3921 22.0112 83.449C21.886 83.5173 21.7723 83.5969 21.6813 83.722C21.5675 83.8699 21.4993 84.0064 21.4765 84.1543C21.4538 84.2908 21.4765 84.4273 21.522 84.5638C21.5789 84.7003 21.6585 84.8254 21.7609 84.9392C21.8747 85.0643 21.9884 85.178 22.1249 85.2804L22.5344 85.5989L23.7288 84.086C23.6947 84.0291 23.6378 83.9723 23.5696 83.904C23.5241 83.8585 23.4103 83.7561 23.2625 83.6424Z" fill="white"/>
<path d="M18.1776 80.3549L18.0525 80.2298C18.1207 80.116 18.2231 79.9909 18.3482 79.8317C18.4734 79.6724 18.5985 79.5359 18.735 79.4108C18.826 79.4221 18.917 79.4449 19.008 79.4904C19.099 79.5359 19.2014 79.5814 19.2924 79.6383C19.3834 79.6952 19.4744 79.7634 19.5654 79.8317C19.6564 79.8999 19.736 79.9795 19.8043 80.0478C20.0887 80.3208 20.3048 80.5938 20.4527 80.8782C20.6005 81.1626 20.6802 81.4469 20.6915 81.7427C20.7029 82.0385 20.6347 82.3342 20.4982 82.6414C20.3617 82.9485 20.1342 83.2556 19.8384 83.5741C19.5199 83.904 19.2128 84.1315 18.8942 84.2794C18.5871 84.4159 18.28 84.4841 17.9842 84.4841C17.6885 84.4841 17.4041 84.4159 17.1425 84.2794C16.8694 84.1543 16.6306 83.9723 16.4031 83.7561C16.1869 83.54 16.0163 83.3466 15.8912 83.176C15.766 83.0054 15.675 82.8347 15.6182 82.6641C15.675 82.6072 15.7319 82.5503 15.8002 82.4821C15.8684 82.4138 15.948 82.3456 16.0391 82.266C16.1187 82.1977 16.2097 82.1181 16.2893 82.0498C16.3689 81.9816 16.4486 81.9247 16.5282 81.8678L16.6533 81.993L16.2211 82.9712C16.2438 83.0281 16.2893 83.0964 16.3689 83.1874C16.4486 83.2784 16.5282 83.358 16.6078 83.4376C16.7784 83.5969 16.9605 83.722 17.1652 83.8016C17.37 83.8813 17.5975 83.9154 17.825 83.8926C18.0639 83.8699 18.3027 83.8016 18.5644 83.6651C18.8146 83.54 19.0763 83.3352 19.3265 83.0736C19.554 82.8347 19.736 82.5959 19.8611 82.3456C19.9863 82.0953 20.0545 81.8451 20.0773 81.6062C20.1 81.356 20.0545 81.1284 19.9635 80.8896C19.8725 80.6621 19.7246 80.4459 19.5085 80.2412C19.3948 80.1388 19.3038 80.0592 19.2128 80.0023C19.1218 79.9454 19.0535 79.9227 19.008 79.9227L18.1776 80.3549Z" fill="white"/>
<path d="M18.5304 78.8989L18.3711 79.024C18.1891 78.9444 18.0299 78.8306 17.8706 78.6941L14.7197 81.3673C14.7652 81.4469 14.8107 81.5379 14.8448 81.629C14.8903 81.72 14.9244 81.8223 14.9472 81.9133L14.7879 82.0385L13.5935 80.6279L13.7528 80.5028C13.8324 80.5369 13.9234 80.5938 14.0144 80.6507C14.1054 80.7076 14.1964 80.7758 14.2874 80.8554L15.5045 79.8203C15.4477 79.7634 15.368 79.6952 15.277 79.6041C15.186 79.5245 15.1178 79.4449 15.0609 79.3766C14.913 79.1946 14.7765 79.0126 14.6742 78.8193C14.5604 78.6259 14.4922 78.4325 14.4694 78.2391C14.4467 78.0457 14.4694 77.841 14.5377 77.6476C14.6173 77.4542 14.7652 77.2609 14.9813 77.0675C15.186 76.8855 15.4022 76.7831 15.6183 76.7376C15.8344 76.6921 16.0506 76.7035 16.2553 76.749C16.4601 76.8058 16.6648 76.8968 16.8582 77.0333C17.0516 77.1698 17.2222 77.3291 17.3815 77.5225C17.3928 77.5452 17.427 77.5794 17.4611 77.6249C17.5066 77.6817 17.5521 77.7386 17.609 77.8069C17.6659 77.8751 17.7227 77.9434 17.7796 78.0116C17.8365 78.0799 17.8934 78.1481 17.9389 78.205L18.5304 78.8989ZM15.4363 79.2629C15.5159 79.3539 15.5728 79.4221 15.6183 79.4677C15.6638 79.5245 15.7207 79.5586 15.7776 79.6041L17.4497 78.1936C17.4383 78.1709 17.427 78.1367 17.3928 78.1026C17.3701 78.0685 17.336 78.0344 17.3018 77.9889C17.2677 77.9434 17.245 77.9092 17.2108 77.8751C17.1767 77.841 17.154 77.8182 17.1426 77.7955C17.0402 77.6704 16.9151 77.568 16.79 77.4884C16.6648 77.4087 16.5283 77.3632 16.3804 77.3405C16.2326 77.3177 16.0847 77.3291 15.9368 77.3746C15.7776 77.4201 15.6297 77.5111 15.4704 77.6476C15.186 77.8865 15.0495 78.1481 15.0609 78.4211C15.0609 78.6941 15.1974 78.9671 15.4363 79.2629Z" fill="white"/>
<path d="M10.5107 76.5556L9.63477 75.2929L9.80539 75.1792C9.8964 75.2361 9.97602 75.2815 10.0443 75.3384C10.1125 75.3953 10.1808 75.4522 10.249 75.509L12.5696 75.6114C12.6265 75.4294 12.6947 75.2247 12.763 74.9858C12.8312 74.7583 12.9108 74.508 12.9791 74.2578C13.0473 74.0075 13.127 73.7459 13.1952 73.4956C13.2635 73.234 13.3317 72.9837 13.3886 72.7449L13.3317 72.3695L13.4796 72.2671L13.9801 72.9837V73.2681C13.8777 73.6776 13.7412 74.0985 13.5934 74.5308C13.4455 74.963 13.2862 75.3953 13.1156 75.8276L13.309 76.1119L14.9243 74.9972C14.8333 74.8038 14.7764 74.6218 14.765 74.4739L14.9356 74.3602L15.9367 75.8048L15.766 75.9186C15.5954 75.8048 15.4475 75.6797 15.2996 75.5432L11.8984 77.8979C11.9894 78.0912 12.0577 78.2732 12.0804 78.4666L11.9098 78.5804L10.9088 77.1357L11.0794 77.022C11.1477 77.0675 11.2159 77.113 11.2956 77.1699C11.3752 77.2267 11.4434 77.2836 11.5231 77.3519L13.1156 76.2598L12.7971 75.9754L10.5448 75.9413C10.5789 76.0323 10.613 76.1233 10.6358 76.203C10.6585 76.2826 10.6813 76.3736 10.6927 76.4532L10.5107 76.5556Z" fill="white"/>
<path d="M12.5925 70.6632L13.4342 72.2102L13.2522 72.3012C13.093 72.1761 12.9565 72.0396 12.8313 71.8803L9.19126 73.8369C9.21401 73.9279 9.23676 74.0303 9.25951 74.1213C9.28226 74.2236 9.29364 74.3146 9.30501 74.417L9.12301 74.508L8.28124 72.961L8.46325 72.87C8.5315 72.9155 8.59975 72.9724 8.65663 73.0292C8.7135 73.0861 8.79313 73.1658 8.86138 73.2454L11.5232 71.8121L12.0237 71.6301L11.3753 71.596L7.91723 71.141L7.76935 71.2206C7.80348 71.323 7.82623 71.4253 7.84898 71.5277C7.87173 71.6301 7.88311 71.7211 7.89448 71.8007L7.72385 71.8917L6.88208 70.3333L7.06409 70.2423C7.13234 70.2992 7.21196 70.3674 7.28021 70.4357C7.34847 70.5039 7.41672 70.5836 7.48497 70.6632L11.1251 68.7066C11.0568 68.5019 11.0113 68.3085 10.9999 68.1265L11.1819 68.0355L12.0237 69.5939L11.8417 69.6849C11.7735 69.6394 11.7166 69.5825 11.6483 69.5143C11.5801 69.446 11.5118 69.3778 11.4436 69.2982L8.79312 70.7314L8.30399 70.9134L8.90688 70.9362L12.4105 71.4026L12.547 71.3343C12.5128 71.232 12.4901 71.1296 12.4673 71.0386C12.4446 70.9476 12.4332 70.8452 12.4332 70.7656L12.5925 70.6632Z" fill="white"/>
<path d="M5.426 67.4326C5.58526 67.8307 5.61938 68.1493 5.52838 68.3995C5.44876 68.6498 5.2895 68.809 5.05062 68.9114C4.98237 68.8773 4.92549 68.8318 4.86861 68.7408C4.81173 68.6611 4.76623 68.5701 4.72073 68.4791L4.74349 68.2858L5.2895 68.0696C5.30087 68.0014 5.2895 67.9104 5.26675 67.8194C5.24399 67.7284 5.22125 67.626 5.17574 67.5236C5.14162 67.4554 5.1075 67.3644 5.05062 67.2734C4.99374 67.1824 4.94824 67.1027 4.90274 67.0458L4.33398 67.2734L4.18609 67.1482C4.15197 67.08 4.14059 67.0003 4.12922 66.898C4.11784 66.7956 4.12922 66.7046 4.15197 66.6363C4.26572 66.5908 4.37948 66.5681 4.50461 66.5681C4.61836 66.5681 4.73211 66.6022 4.84587 66.6705C4.95962 66.7273 5.06199 66.8297 5.16437 66.9548C5.26675 67.0572 5.34637 67.2279 5.426 67.4326ZM10.4084 66.1586L11.0568 67.7966L10.8634 67.8762C10.7155 67.7397 10.5904 67.5805 10.4994 67.4099L6.65453 68.9228C6.6659 69.0138 6.67728 69.1162 6.68865 69.2185C6.70003 69.3209 6.70003 69.4233 6.70003 69.5143L6.50665 69.5939L5.85826 67.9559L6.05164 67.8762C6.10852 67.9331 6.17677 67.99 6.23364 68.0583C6.29052 68.1265 6.3474 68.2061 6.40427 68.2971L9.21397 67.1824L9.72585 67.0572L9.08884 66.9435L5.69901 66.0903L5.55113 66.1472C5.57388 66.2496 5.58526 66.3633 5.58526 66.4543C5.59663 66.5567 5.59663 66.6477 5.59663 66.7273L5.41463 66.7956L4.76624 65.1462L4.95962 65.0666C5.02787 65.1348 5.08474 65.2031 5.15299 65.2827C5.22124 65.3623 5.27812 65.4419 5.335 65.5329L9.17984 64.0542C9.13434 63.838 9.11159 63.6446 9.12296 63.4626L9.31635 63.383L9.96474 65.0324L9.77136 65.1121C9.71448 65.0552 9.6576 64.9869 9.58935 64.9187C9.53247 64.8504 9.47559 64.7708 9.41872 64.6798L6.60903 65.7832L6.09715 65.9083L6.70003 65.9993L10.124 66.8752L10.2719 66.8183C10.2491 66.716 10.2377 66.6136 10.2264 66.5112C10.215 66.4088 10.215 66.3178 10.2264 66.2268L10.4084 66.1586Z" fill="white"/>
<path d="M8.01953 58.2186L8.33803 59.9477L8.14466 59.9818C8.04228 59.8112 7.95127 59.6405 7.88302 59.4472L3.82206 60.1866C3.83343 60.4027 3.81068 60.6074 3.7538 60.7781L3.56042 60.8122L3.24191 59.0832L3.4353 59.049C3.49217 59.1173 3.53767 59.1969 3.58317 59.2765C3.62867 59.3562 3.6628 59.4472 3.69693 59.5268L5.48284 59.1969L5.08471 57.047L3.29879 57.3769C3.29879 57.4792 3.28741 57.5702 3.27604 57.6612C3.26466 57.7522 3.24191 57.8433 3.21916 57.9229L3.02579 57.957L2.70728 56.228L2.90066 56.1938C2.95753 56.2621 3.01441 56.3531 3.05991 56.4441C3.10541 56.5351 3.13954 56.6261 3.17367 56.7285L7.23464 55.9891C7.23464 55.8753 7.23464 55.773 7.24601 55.6706C7.25739 55.5682 7.26876 55.4772 7.29151 55.3976L7.48489 55.3634L7.8034 57.0925L7.61002 57.1266C7.50764 56.9787 7.41664 56.8195 7.34839 56.6375L5.42597 56.9901L5.8241 59.14L7.74653 58.7874C7.74653 58.6964 7.7579 58.594 7.76927 58.503C7.78065 58.412 7.8034 58.321 7.81477 58.2414L8.01953 58.2186Z" fill="white"/>
<path d="M7.38247 53.7482L7.48484 55.2952L7.28009 55.3066C7.18908 55.1473 7.13221 54.9767 7.07533 54.8174L2.37735 53.3728L2.36597 53.168L6.82507 51.0977C6.83645 51.0067 6.84783 50.9157 6.87058 50.8133C6.88195 50.7223 6.91608 50.6313 6.96158 50.5517L7.16633 50.5403L7.29146 52.3376L7.0867 52.349C7.0412 52.258 7.00708 52.167 6.97295 52.076C6.93883 51.985 6.9047 51.8826 6.88195 51.7916L5.64205 52.349L5.7558 53.9984L7.06396 54.3624C7.07533 54.169 7.12083 53.9643 7.18908 53.7482H7.38247ZM5.38041 53.8847L5.28941 52.4855L3.85613 53.1339L3.26462 53.3045V53.3159L3.89026 53.4524L5.38041 53.8847Z" fill="white"/>
<path d="M7.16636 50.4607L6.96161 50.4493C6.90473 50.3128 6.85923 50.1194 6.81373 49.8692L2.68451 49.6986C2.65039 49.8806 2.58213 50.0626 2.49113 50.2673L2.28638 50.2559L2.366 48.4928L2.57076 48.5041C2.62764 48.6407 2.67313 48.8227 2.71864 49.0388L6.84786 49.2094L6.93886 47.1277L2.80964 46.9571C2.78689 47.0367 2.76413 47.1277 2.73001 47.2074C2.69588 47.2984 2.66176 47.378 2.61626 47.469L2.4115 47.4576L2.49113 45.6945L2.69588 45.7058C2.76414 45.8992 2.82101 46.0926 2.84376 46.286L6.97298 46.4566L7.00711 45.6603C7.09812 45.6603 7.21187 45.6717 7.32562 45.6831C7.45075 45.6945 7.57587 45.7172 7.71238 45.74C7.84888 45.7627 7.97401 45.7855 8.08776 45.7968C8.21289 45.8196 8.31527 45.8423 8.40627 45.8651L8.39489 46.0357L7.32562 46.2974L7.16636 50.4607Z" fill="white"/>
<path d="M7.68983 43.5787L7.46232 45.3418L7.25756 45.3191C7.20069 45.1257 7.16656 44.9323 7.16656 44.7503L3.07147 44.2271C3.03734 44.3181 3.00321 44.4091 2.95771 44.4887C2.91221 44.5797 2.86671 44.6593 2.82121 44.7503L2.61646 44.7276L2.84396 42.9644L3.04871 42.9871C3.07146 43.0781 3.09422 43.1691 3.11697 43.2715C3.13972 43.3739 3.15109 43.4649 3.15109 43.5673L7.24619 44.0905C7.28032 43.9995 7.31445 43.8972 7.34857 43.8062C7.3827 43.7152 7.4282 43.6242 7.4737 43.5559L7.68983 43.5787Z" fill="white"/>
<path d="M5.35786 42.4525C5.00523 42.3729 4.68672 42.2591 4.40234 42.0885C4.11796 41.9292 3.89045 41.7245 3.70845 41.497C3.52645 41.2695 3.40132 40.9965 3.34444 40.7121C3.27619 40.4163 3.28756 40.0978 3.35581 39.7566C3.42406 39.4153 3.56057 39.1309 3.74257 38.8807C3.92458 38.6418 4.14071 38.4484 4.40234 38.3119C4.66397 38.1754 4.95973 38.0958 5.27824 38.0617C5.59674 38.0275 5.938 38.0503 6.29063 38.1299C6.64326 38.2095 6.96177 38.3233 7.24616 38.4939C7.53054 38.6532 7.75804 38.8579 7.94005 39.0854C8.12205 39.3129 8.24718 39.5859 8.30406 39.8703C8.37231 40.1661 8.36093 40.4846 8.29268 40.8258C8.21306 41.1671 8.08793 41.4515 7.90592 41.7017C7.72392 41.9406 7.50779 42.134 7.24616 42.2705C6.98453 42.407 6.68877 42.4866 6.37026 42.5208C6.05175 42.5549 5.7105 42.5321 5.35786 42.4525ZM5.51711 41.7245C5.81287 41.7927 6.08588 41.8155 6.35889 41.8155C6.63189 41.8155 6.87077 41.77 7.0869 41.6904C7.30303 41.6107 7.48504 41.4856 7.64429 41.3264C7.79217 41.1671 7.89455 40.9623 7.95142 40.7007C7.99693 40.4732 7.98555 40.2571 7.9173 40.0637C7.84905 39.8703 7.72392 39.6883 7.55329 39.5404C7.38266 39.3926 7.1779 39.2561 6.93902 39.1423C6.70014 39.0286 6.42714 38.9375 6.14275 38.8807C5.847 38.8124 5.57399 38.7897 5.30099 38.7897C5.02798 38.7897 4.7891 38.8352 4.57297 38.9148C4.35684 38.9944 4.17483 39.1196 4.01558 39.2788C3.8677 39.4381 3.76533 39.6428 3.70845 39.9044C3.65157 40.1547 3.66294 40.3822 3.7312 40.5756C3.79945 40.7803 3.92458 40.951 4.09521 41.0989C4.26583 41.2467 4.47059 41.3832 4.70947 41.4856C4.95973 41.5766 5.22136 41.6562 5.51711 41.7245Z" fill="white"/>
<path d="M9.37316 36.5715L8.79302 38.2323L8.59965 38.164C8.58827 37.9593 8.59964 37.7659 8.63377 37.5725L4.73205 36.2189C4.62968 36.4122 4.51592 36.5715 4.37942 36.6966L4.18604 36.6284L4.76618 34.9676L4.95956 35.0358C4.97093 35.1268 4.98231 35.2178 4.97093 35.3088C4.97093 35.3998 4.95955 35.4908 4.94818 35.5932L6.66585 36.1847L7.38249 34.1144L5.66482 33.5229C5.60794 33.6025 5.56245 33.6822 5.50557 33.7618C5.44869 33.8301 5.39182 33.8983 5.33494 33.9666L5.14156 33.8983L5.7217 32.2375L5.91508 32.3058C5.92645 32.3968 5.93783 32.4992 5.92646 32.6015C5.91508 32.7039 5.9037 32.8063 5.89233 32.8973L9.79405 34.2509C9.85093 34.1599 9.89643 34.0689 9.96468 33.9893C10.0216 33.9097 10.0784 33.8301 10.1467 33.7732L10.3401 33.8414L9.75992 35.5022L9.56654 35.434C9.55517 35.252 9.55517 35.07 9.57792 34.888L7.73512 34.2509L7.01848 36.3212L8.86128 36.9583C8.90678 36.8786 8.96365 36.799 9.02053 36.7194C9.0774 36.6398 9.13428 36.5715 9.19115 36.5146L9.37316 36.5715Z" fill="white"/>
<path d="M11.0112 32.3626L10.3401 33.7618L10.1581 33.6708C10.1581 33.4888 10.1809 33.3182 10.2264 33.1475L6.8479 29.5757L6.9389 29.3937L11.8416 29.7918C11.8985 29.7122 11.9554 29.644 12.0123 29.5757C12.0692 29.5075 12.1374 29.4392 12.217 29.3937L12.399 29.4847L11.6255 31.1L11.4435 31.009C11.4549 30.9066 11.4663 30.8042 11.4776 30.7132C11.489 30.6109 11.5118 30.5199 11.5345 30.4289L10.1809 30.3037L9.46421 31.7939L10.4197 32.7608C10.5335 32.6015 10.67 32.4423 10.8292 32.2944L11.0112 32.3626ZM9.20258 31.4981L9.80547 30.2355L8.23568 30.0876L7.64417 29.9511L7.6328 29.9625L8.11055 30.3833L9.20258 31.4981Z" fill="white"/>
<path d="M9.28232 26.038C9.08894 26.2541 8.90693 26.4248 8.7363 26.5271L8.56567 26.4248L10.4881 23.3079L10.6587 23.4103C10.6474 23.5923 10.5905 23.7857 10.5108 23.9904L14.0258 26.1631C14.1737 25.9925 14.3216 25.8674 14.4694 25.765L14.6401 25.8674L13.7073 27.3689L13.5367 27.2665C13.548 27.1755 13.5708 27.0845 13.5935 26.9935C13.6163 26.9025 13.6504 26.8115 13.6732 26.7205L10.1468 24.5478L9.46432 25.6512C10.0786 26.0494 10.5677 26.402 10.9545 26.6864C11.3412 26.9821 11.6484 27.2438 11.8759 27.4713C12.1034 27.6988 12.274 27.9035 12.3764 28.0855C12.4788 28.2675 12.5698 28.4382 12.638 28.6088C12.6949 28.7567 12.7063 28.8932 12.6835 29.0411C12.6608 29.1889 12.6153 29.3141 12.547 29.4165C12.5015 29.4278 12.4333 29.4278 12.365 29.4165C12.2854 29.4051 12.2058 29.4051 12.1261 29.3823C12.0465 29.371 11.9669 29.3482 11.8873 29.3255C11.8076 29.3027 11.7507 29.2799 11.6939 29.2458L11.6029 29.0638L12.1489 28.4609C12.092 28.3358 11.9896 28.1993 11.8645 28.04C11.7394 27.8808 11.5687 27.6988 11.3412 27.5054C11.1137 27.3007 10.8407 27.0845 10.5108 26.8343C10.1696 26.5954 9.76008 26.3338 9.28232 26.038Z" fill="white"/>
<path d="M14.8106 25.6399L14.6513 25.5147C14.6968 25.3214 14.7651 25.1394 14.8674 24.9573L11.5914 22.4434C11.5231 22.5117 11.4435 22.5685 11.3639 22.6254C11.2842 22.6823 11.1932 22.7392 11.1136 22.796L10.9543 22.6709L12.0805 21.2035L12.2398 21.3286C12.217 21.4196 12.1829 21.5106 12.1487 21.613C12.1146 21.7154 12.0577 21.8178 12.0009 21.9201L13.2635 22.887C13.309 22.8188 13.3659 22.7278 13.4228 22.6254C13.491 22.523 13.5479 22.432 13.6048 22.3638C13.7413 22.1818 13.9005 22.0111 14.0598 21.8633C14.2304 21.7154 14.4011 21.613 14.5831 21.5448C14.7651 21.4765 14.9698 21.4538 15.1746 21.4879C15.3793 21.522 15.6068 21.6244 15.8343 21.795C16.0505 21.9657 16.2097 22.1477 16.2894 22.3524C16.3804 22.5572 16.4145 22.7619 16.4145 22.9781C16.4031 23.1942 16.3576 23.4103 16.2666 23.6264C16.1756 23.8426 16.0505 24.0473 15.9026 24.2521C15.8912 24.2748 15.8571 24.309 15.823 24.3545C15.7775 24.4113 15.732 24.4682 15.6751 24.5365C15.6182 24.6047 15.5613 24.673 15.5045 24.7412C15.4476 24.8095 15.3907 24.8777 15.3566 24.9346L14.8106 25.6399ZM13.7982 22.6937C13.7299 22.7847 13.673 22.8643 13.6275 22.9212C13.582 22.9781 13.5593 23.0349 13.5252 23.1032L15.2656 24.4341C15.2883 24.4227 15.3111 24.4 15.3452 24.3658C15.3793 24.3317 15.4021 24.2976 15.4362 24.2521C15.4703 24.218 15.5045 24.1725 15.5272 24.1383C15.55 24.1042 15.5727 24.0701 15.5955 24.0587C15.6978 23.9336 15.7661 23.7971 15.823 23.6492C15.8685 23.5013 15.8912 23.3648 15.8798 23.2169C15.8685 23.0691 15.823 22.9326 15.7433 22.7847C15.6637 22.6482 15.5386 22.5117 15.3793 22.3865C15.0836 22.159 14.7992 22.0794 14.5376 22.1477C14.2759 22.2159 14.0257 22.3979 13.7982 22.6937Z" fill="white"/>
<path d="M18.4621 21.1466L17.2564 22.4207L17.1085 22.2842C17.1767 22.1022 17.2677 21.9201 17.3815 21.7495L14.3784 18.9057C14.2078 19.0422 14.0372 19.1446 13.8552 19.2015L13.7073 19.065L14.9131 17.7796L15.0609 17.9161C15.0382 18.0071 15.0041 18.0867 14.9699 18.1663C14.9244 18.2459 14.8789 18.3369 14.8334 18.4166L16.153 19.6678L17.6545 18.0753L16.335 16.824C16.2553 16.8809 16.1643 16.9264 16.0847 16.9719C16.0051 17.0174 15.9255 17.0515 15.8458 17.0857L15.6979 16.9492L16.9037 15.6637L17.0516 15.8003C17.0289 15.8913 16.9947 15.9823 16.9379 16.0733C16.8924 16.1643 16.8355 16.2553 16.7786 16.3349L19.7817 19.1787C19.8727 19.1105 19.9523 19.0536 20.0433 19.0081C20.1343 18.9626 20.2139 18.9171 20.2936 18.883L20.4414 19.0195L19.2357 20.3049L19.0878 20.1684C19.1447 19.9977 19.2243 19.8271 19.3267 19.6792L17.9048 18.3369L16.4032 19.9295L17.8251 21.2718C17.9048 21.2149 17.9844 21.1694 18.064 21.1239C18.1436 21.0784 18.2233 21.0442 18.3029 21.0101L18.4621 21.1466Z" fill="white"/>
<path d="M22.0111 17.7227L20.6575 18.8488L20.5324 18.6896C20.6234 18.5076 20.7257 18.3369 20.8622 18.1891L18.2118 15.0267C18.1208 15.0722 18.0412 15.1064 17.9388 15.1519C17.8478 15.1974 17.7568 15.2315 17.6544 15.2656L17.5293 15.1064L18.8829 13.9802L19.0081 14.1395C18.974 14.2191 18.9398 14.2873 18.8943 14.367C18.8488 14.4466 18.792 14.5262 18.7237 14.6058L20.6689 16.9264L20.9419 17.3814L20.8395 16.7444L20.5892 13.2636L20.4869 13.1384C20.3959 13.1839 20.2935 13.2294 20.2025 13.2749C20.1115 13.3091 20.0205 13.3432 19.9408 13.3659L19.8157 13.2181L21.1694 12.0805L21.2945 12.2398C21.249 12.3194 21.2035 12.4104 21.1466 12.49C21.0898 12.5697 21.0329 12.6607 20.9646 12.7403L23.6151 15.9026C23.8084 15.7889 23.9904 15.7092 24.1611 15.6637L24.2862 15.823L22.9326 16.9605L22.8074 16.8013C22.8415 16.733 22.887 16.6534 22.9326 16.5738C22.9781 16.4941 23.0349 16.4145 23.1032 16.3349L21.1694 14.0257L20.885 13.5821L20.9874 14.185L21.2376 17.7113L21.34 17.825C21.431 17.7682 21.522 17.7227 21.613 17.6885C21.704 17.6544 21.795 17.6203 21.8746 17.5975L22.0111 17.7227Z" fill="white"/>
<path d="M25.9812 14.6741L24.5024 15.641L24.3887 15.4704C24.5024 15.2997 24.6276 15.1519 24.7754 15.0154L22.5118 11.5573C22.4208 11.5914 22.3298 11.6141 22.2274 11.6483C22.125 11.6824 22.034 11.7052 21.9316 11.7279L21.8179 11.5573L23.2967 10.5904L23.4104 10.761C23.3649 10.8293 23.3194 10.8975 23.2625 10.9771C23.2057 11.0454 23.1374 11.125 23.0692 11.1933L24.7299 13.7186L24.9574 14.1963L24.9347 13.5479L25.094 10.0557L25.0029 9.91924C24.9006 9.95336 24.7982 9.98749 24.7072 10.0216C24.6162 10.0444 24.5252 10.0671 24.4342 10.0899L24.3204 9.91924L25.7992 8.95234L25.913 9.12297C25.8675 9.20259 25.8106 9.28222 25.7423 9.35047C25.6741 9.4301 25.6058 9.49835 25.5376 9.57798L27.8013 13.0361C28.006 12.9451 28.1994 12.8882 28.37 12.8654L28.4838 13.0361L27.005 14.003L26.8912 13.8323C26.9367 13.7641 26.9822 13.6958 27.0391 13.6162C27.096 13.5479 27.1643 13.4683 27.2325 13.4001L25.5831 10.8748L25.3556 10.397L25.3897 10.9999L25.2305 14.5262L25.3101 14.6513C25.4125 14.6058 25.5035 14.5717 25.6058 14.549C25.6968 14.5148 25.7878 14.5035 25.8788 14.4921L25.9812 14.6741ZM23.7403 10.0557C23.3877 10.2946 23.0805 10.3856 22.8189 10.3515C22.5573 10.3174 22.3639 10.1922 22.2274 9.98749C22.2388 9.91924 22.2843 9.83961 22.3525 9.77136C22.4208 9.69173 22.5004 9.63486 22.58 9.57798L22.7734 9.55523L23.1033 10.0557C23.1715 10.0444 23.2512 10.0216 23.3422 9.98749C23.4332 9.95336 23.5242 9.89648 23.6038 9.83961C23.672 9.79411 23.7403 9.73723 23.8313 9.66898C23.9109 9.60073 23.9792 9.53248 24.0247 9.4756L23.6834 8.96371L23.7744 8.79309C23.8313 8.74758 23.9109 8.71346 24.0133 8.69071C24.1157 8.65658 24.2067 8.64521 24.2749 8.65658C24.3432 8.75896 24.3887 8.87271 24.4114 8.98646C24.4342 9.10022 24.4228 9.21397 24.3887 9.3391C24.3546 9.46423 24.2749 9.57798 24.1726 9.70311C24.0588 9.81686 23.9223 9.93061 23.7403 10.0557Z" fill="white"/>
<path d="M33.1135 5.93789C32.8859 5.98339 32.6812 6.00614 32.4992 6.00614L32.4196 5.82414L33.8528 5.23262L33.9325 5.41463C33.887 5.46013 33.8301 5.51701 33.7618 5.57388C33.6936 5.63076 33.614 5.69901 33.5343 5.76726L33.4547 9.15709C33.4547 9.4301 33.4547 9.66898 33.432 9.88511C33.4206 10.1012 33.3865 10.2832 33.3296 10.4311C33.2841 10.579 33.2158 10.7041 33.1248 10.7951C33.0338 10.8861 32.9314 10.943 32.7949 10.9771C32.7494 10.9544 32.7039 10.9089 32.6584 10.8634C32.6129 10.8179 32.5674 10.761 32.5219 10.7041C32.4764 10.6473 32.4423 10.5904 32.3968 10.5335C32.3627 10.4766 32.3286 10.4197 32.3058 10.3742L32.3399 10.1695L33.0793 10.0671C33.0907 10.0444 33.1021 10.0102 33.1021 9.96474C33.1021 9.91924 33.1135 9.87373 33.1135 9.82823C33.1135 9.78273 33.1135 9.72586 33.1135 9.68036C33.1135 9.63485 33.1134 9.58935 33.1021 9.54385L30.2355 7.1323C30.1445 7.14367 30.0535 7.15504 29.9625 7.16642C29.8715 7.1778 29.7805 7.1778 29.6895 7.1778L29.6099 6.99579L31.3048 6.3019L31.3844 6.4839C31.3275 6.54078 31.2593 6.60903 31.1797 6.66591C31.1 6.73416 31.0204 6.79104 30.9294 6.85929L32.8746 8.5542L33.1817 8.90684H33.1931L33.1476 8.42908L33.1135 5.93789Z" fill="white"/>
<path d="M37.4815 9.21397L35.7866 9.70311L35.7297 9.50973C35.889 9.3846 36.0596 9.28222 36.2303 9.19122L35.0927 5.22125C34.8766 5.25537 34.6718 5.244 34.5012 5.20988L34.4443 5.0165L36.1393 4.52736L36.1961 4.72074C36.1279 4.77761 36.0596 4.83449 35.98 4.89137C35.9004 4.93687 35.8207 4.99375 35.7411 5.02787L36.2416 6.77966L38.3461 6.17677L37.8455 4.42498C37.7432 4.42498 37.6522 4.42498 37.5612 4.42498C37.4702 4.42498 37.3792 4.41361 37.2995 4.40223L37.2427 4.20885L38.9376 3.71972L38.9944 3.91309C38.9262 3.98134 38.8466 4.03822 38.7556 4.0951C38.6646 4.15197 38.5736 4.19748 38.4939 4.24298L39.6315 8.21295C39.7338 8.20157 39.8476 8.1902 39.95 8.1902C40.0523 8.1902 40.1433 8.20157 40.2344 8.21295L40.2912 8.40632L38.5963 8.89546L38.5394 8.70208C38.6759 8.58833 38.8352 8.48595 38.9944 8.39495L38.4598 6.51803L36.3554 7.12092L36.89 8.99784C36.981 8.98646 37.0834 8.98646 37.1744 8.98646C37.2654 8.98646 37.3564 8.99784 37.4474 9.00922L37.4815 9.21397Z" fill="white"/>
<path d="M42.464 8.04232L40.7122 8.38358L40.678 8.19019C40.8373 8.07644 41.0079 7.98544 41.1899 7.91719L40.405 3.86759C40.314 3.86759 40.2117 3.85622 40.1207 3.84484C40.0183 3.83347 39.9273 3.82209 39.8249 3.79934L39.7908 3.60596L41.5426 3.2647L41.5767 3.45808C41.4971 3.51496 41.4174 3.56046 41.3264 3.60596C41.2354 3.65146 41.1444 3.69696 41.0648 3.73109L41.8497 7.78068C41.9521 7.78068 42.0545 7.78068 42.1455 7.79206C42.2478 7.80344 42.3388 7.81481 42.4185 7.83756L42.464 8.04232Z" fill="white"/>
<path d="M42.8962 7.92856L42.8734 7.72381C43.044 7.61005 43.226 7.5418 43.4194 7.4963L42.9417 3.38983C42.8507 3.37846 42.7483 3.36708 42.6459 3.34433C42.5435 3.32158 42.4525 3.29883 42.3501 3.27608L42.3274 3.07132L43.0554 2.9917C43.1464 2.98032 43.226 2.96895 43.3057 2.95757C43.3853 2.94619 43.4649 2.93482 43.5559 2.91207C43.6469 2.90069 43.7379 2.87794 43.8403 2.86657C43.9427 2.85519 44.0564 2.83244 44.1816 2.82107C44.3636 2.79832 44.5569 2.79832 44.7503 2.79832C44.9437 2.80969 45.1257 2.84382 45.285 2.91207C45.4442 2.98032 45.5921 3.0827 45.7058 3.2192C45.8196 3.35571 45.8878 3.54909 45.922 3.78797C45.9334 3.91309 45.9334 4.02685 45.9106 4.15197C45.8879 4.2771 45.8424 4.39085 45.7855 4.50461C45.7172 4.61836 45.6376 4.72074 45.5352 4.81174C45.4328 4.90274 45.2963 4.98237 45.1485 5.02787V5.05062C45.285 5.06199 45.4328 5.08475 45.5693 5.11887C45.7172 5.153 45.8424 5.22125 45.9561 5.30088C46.0699 5.3805 46.1722 5.49425 46.2519 5.61938C46.3315 5.74451 46.3884 5.91514 46.4111 6.10852C46.4452 6.35878 46.4111 6.57491 46.3201 6.76829C46.2291 6.96167 46.104 7.12092 45.9333 7.25742C45.7741 7.39393 45.5807 7.4963 45.3532 7.57593C45.1371 7.65556 44.9096 7.71243 44.6821 7.73518C44.5228 7.75793 44.3408 7.76931 44.1361 7.78068C43.9313 7.79206 43.7379 7.80344 43.5445 7.82619L42.8962 7.92856ZM44.1247 5.1075C44.2043 5.09612 44.2953 5.08475 44.4091 5.06199C44.5114 5.03924 44.6024 5.02787 44.6707 5.00512C44.8755 4.90274 45.0347 4.76624 45.1485 4.58424C45.2622 4.40223 45.3077 4.20885 45.285 3.98134C45.2508 3.67421 45.1371 3.45808 44.9323 3.33296C44.7276 3.19645 44.4773 3.15095 44.1816 3.18508C44.0337 3.19645 43.9199 3.2192 43.8176 3.23058C43.7152 3.24195 43.6356 3.2647 43.5673 3.27608L43.7834 5.13025L44.1247 5.1075ZM44.7048 7.39393C44.8755 7.37117 45.0233 7.33705 45.1598 7.2688C45.2963 7.20055 45.4101 7.12092 45.5125 7.01854C45.6035 6.91617 45.6717 6.80241 45.7172 6.66591C45.7627 6.52941 45.7741 6.3929 45.7627 6.24502C45.74 6.06302 45.6831 5.91514 45.6035 5.80139C45.5125 5.68763 45.4101 5.59663 45.2736 5.53976C45.1485 5.48288 45.0006 5.44876 44.83 5.43738C44.6707 5.42601 44.5001 5.43738 44.3294 5.44875L43.8062 5.50563L44.0223 7.41668C44.0906 7.42805 44.1702 7.42805 44.2612 7.42805C44.3749 7.42805 44.5114 7.41668 44.7048 7.39393Z" fill="white"/>
<path d="M50.2446 2.52531C50.2446 2.70732 50.2446 2.9007 50.2332 3.0827C50.2218 3.27608 50.2105 3.45808 50.1877 3.65146H50.0057L49.71 2.88932L48.197 2.92345L48.2312 4.76624L49.3687 4.74349L49.6303 4.22023H49.801C49.8351 4.67524 49.8465 5.153 49.8351 5.63076H49.6645L49.3801 5.1075L48.2425 5.13025L48.288 7.07542L49.892 7.04129L50.2105 6.19952H50.3811C50.4152 6.3929 50.4493 6.58628 50.4607 6.79104C50.4835 6.99579 50.4835 7.18917 50.4835 7.39393L47.0481 7.46218V7.25743C47.2074 7.1778 47.4008 7.12092 47.6169 7.07542L47.5373 2.9462C47.4463 2.93482 47.3439 2.91207 47.2529 2.87795C47.1505 2.8552 47.0595 2.82107 46.9685 2.78694V2.58219L50.2446 2.52531Z" fill="white"/>
<path d="M52.2581 7.12092C52.3832 7.14367 52.497 7.1778 52.6108 7.21192C52.7245 7.24605 52.8269 7.29155 52.9179 7.33705L52.9065 7.54181L51.0068 7.4053L51.0182 7.20055C51.1092 7.16642 51.2116 7.1323 51.314 7.12092C51.4164 7.10955 51.5074 7.0868 51.5984 7.07542L51.8941 2.95757C51.7917 2.93482 51.6894 2.9007 51.5984 2.86657C51.5074 2.83244 51.4163 2.78694 51.3367 2.74144L51.3481 2.53669L51.9737 2.58219C52.1557 2.59356 52.3605 2.60494 52.5766 2.59356C52.7928 2.59356 53.0089 2.59356 53.2023 2.61631C53.4298 2.62769 53.6459 2.67319 53.862 2.74144C54.0782 2.80969 54.2602 2.9007 54.4194 3.02582C54.5787 3.15095 54.7038 3.32158 54.7948 3.51496C54.8858 3.71971 54.9199 3.9586 54.8972 4.24298C54.8744 4.51599 54.8062 4.74349 54.6924 4.93687C54.5673 5.11887 54.4194 5.27813 54.226 5.38051C54.044 5.49426 53.8279 5.57389 53.6004 5.60801C53.3729 5.65351 53.134 5.66489 52.8951 5.64214C52.8724 5.64214 52.8383 5.64213 52.7928 5.63076C52.7473 5.63076 52.6904 5.61938 52.6335 5.61938C52.5766 5.60801 52.5197 5.60801 52.4742 5.59664C52.4287 5.58526 52.3832 5.58526 52.3605 5.57388L52.2581 7.12092ZM53.0316 2.96895C52.9179 2.95757 52.8269 2.95757 52.7586 2.95757C52.6904 2.95757 52.6221 2.95757 52.5539 2.96895L52.3946 5.22125C52.4174 5.23262 52.4515 5.244 52.497 5.244C52.5425 5.244 52.588 5.25538 52.6335 5.26675C52.679 5.27813 52.7245 5.27813 52.77 5.2895C52.8155 5.2895 52.8496 5.30088 52.8838 5.30088C53.043 5.31225 53.2023 5.30088 53.3502 5.26675C53.498 5.23263 53.6232 5.17575 53.7483 5.08475C53.862 4.99375 53.9644 4.87999 54.0327 4.73211C54.1123 4.58424 54.1578 4.41361 54.1692 4.20885C54.1919 3.83347 54.1123 3.53771 53.9075 3.33296C53.7028 3.10545 53.407 2.9917 53.0316 2.96895Z" fill="white"/>
<path d="M58.7875 7.06404L58.9695 7.09817C58.9695 7.23467 58.9581 7.39393 58.9467 7.58731C58.9353 7.78069 58.9012 7.97407 58.8671 8.15607C58.7875 8.20157 58.6965 8.22432 58.5941 8.24707C58.4917 8.26982 58.3893 8.2812 58.2756 8.2812C58.1618 8.2812 58.0481 8.2812 57.9343 8.26982C57.8206 8.25845 57.7182 8.24707 57.6158 8.22432C57.229 8.15607 56.8992 8.05369 56.6148 7.89444C56.3304 7.74656 56.1029 7.55318 55.9323 7.3143C55.7616 7.07542 55.6479 6.79104 55.5796 6.46116C55.5228 6.13127 55.5341 5.74451 55.6024 5.31225C55.682 4.86862 55.8071 4.49323 55.9891 4.19747C56.1711 3.90172 56.3759 3.67421 56.6262 3.51496C56.8764 3.3557 57.138 3.25333 57.4338 3.20783C57.7295 3.16233 58.0253 3.1737 58.3324 3.2192C58.6396 3.27608 58.8898 3.33295 59.0832 3.41258C59.288 3.49221 59.4586 3.57183 59.5951 3.68559C59.5837 3.75384 59.561 3.84484 59.5382 3.94722C59.5155 4.0496 59.4927 4.15197 59.4586 4.25435C59.4245 4.35673 59.4017 4.47048 59.3676 4.57286C59.3335 4.67524 59.3107 4.76624 59.2766 4.85724L59.0946 4.82311L58.9126 3.77659C58.8671 3.74247 58.7875 3.70834 58.6737 3.67421C58.5599 3.64009 58.4462 3.61734 58.3324 3.60596C58.1049 3.57184 57.8774 3.57184 57.6613 3.61734C57.4452 3.66284 57.2404 3.76521 57.0584 3.91309C56.8764 4.06097 56.7172 4.26573 56.5806 4.51598C56.4441 4.76624 56.3418 5.07337 56.2849 5.43738C56.228 5.76726 56.2166 6.06302 56.2508 6.33603C56.2849 6.60903 56.3645 6.85929 56.4897 7.07542C56.6148 7.29155 56.774 7.46218 56.9788 7.59868C57.1835 7.73519 57.4338 7.82619 57.7182 7.87169C57.8661 7.89444 57.9912 7.90581 58.1049 7.90581C58.2073 7.90581 58.2756 7.88306 58.3211 7.84894L58.7875 7.06404Z" fill="white"/>
<path d="M61.0057 8.92959L59.3108 8.44045L59.3677 8.24707C59.5724 8.21295 59.7658 8.21295 59.9592 8.24707L61.1081 4.2771C61.0285 4.2316 60.9375 4.17473 60.8578 4.12922C60.7668 4.07235 60.6872 4.01547 60.6076 3.9586L60.6645 3.76521L62.3594 4.25435L62.3025 4.44773C62.2229 4.45911 62.1319 4.47048 62.0522 4.47048C61.9612 4.47048 61.8702 4.47048 61.7565 4.45911L60.9147 7.3598L60.6986 7.83756L61.1763 7.4053L63.9292 5.25538L63.9747 5.09612C63.8836 5.03925 63.7927 4.99374 63.7017 4.93687C63.622 4.87999 63.5424 4.82311 63.4742 4.77761L63.531 4.58424L65.2259 5.07337L65.1691 5.26675C65.0781 5.27813 64.9871 5.2895 64.8847 5.2895C64.7823 5.2895 64.6799 5.2895 64.5775 5.27812L63.4286 9.2481C63.6334 9.3391 63.7927 9.45285 63.9292 9.5666L63.8723 9.75998L62.1774 9.27085L62.2342 9.07747C62.3139 9.06609 62.4049 9.05472 62.4959 9.05472C62.5869 9.05472 62.6893 9.05472 62.7916 9.06609L63.6334 6.1654L63.8495 5.68763L63.4059 6.10852L60.6189 8.2812L60.5735 8.42908C60.6758 8.47458 60.7668 8.53145 60.8465 8.57695C60.9261 8.63383 61.0057 8.69071 61.074 8.74758L61.0057 8.92959Z" fill="white"/>
<path d="M66.8411 10.9771L65.0325 10.2377L65.1121 10.0557C65.2258 10.0557 65.3282 10.0671 65.4306 10.0785C65.533 10.0899 65.6467 10.1126 65.7719 10.1467L67.353 6.31327L66.3634 5.90376L65.6467 6.68866L65.4875 6.62041C65.5102 6.52941 65.5444 6.42703 65.5785 6.31327C65.6126 6.19952 65.6581 6.08577 65.6922 5.97202C65.7377 5.85826 65.7719 5.74451 65.8174 5.63076C65.8629 5.51701 65.897 5.426 65.9311 5.335L69.6736 6.87066C69.6395 6.96166 69.5939 7.05267 69.5484 7.15504C69.5029 7.25742 69.4461 7.37118 69.4006 7.48493C69.3437 7.59868 69.2982 7.70106 69.2413 7.81481C69.1844 7.91719 69.1389 8.01957 69.0934 8.09919L68.9228 8.03094L68.9683 6.97304L67.99 6.57491L66.4089 10.4084C66.5113 10.4766 66.6023 10.5449 66.6933 10.6018C66.7843 10.6586 66.8639 10.7269 66.9321 10.8065L66.8411 10.9771Z" fill="white"/>
<path d="M73.2 8.71346C73.109 8.87271 73.018 9.03196 72.9156 9.20259C72.8132 9.36185 72.7108 9.5211 72.6084 9.68036L72.4492 9.60073L72.5516 8.79309L71.2093 8.08782L70.3448 9.71448L71.3458 10.2491L71.8236 9.91924L71.9828 9.99886C71.7894 10.4197 71.5733 10.8293 71.3231 11.2388L71.1638 11.1591L71.1752 10.5676L70.1741 10.033L69.2641 11.7507L70.6747 12.5014L71.3685 11.9213L71.5278 12.0009C71.4709 12.1829 71.3913 12.3763 71.3117 12.5583C71.232 12.7403 71.141 12.9223 71.0387 13.0929L68.0015 11.489L68.0925 11.307C68.2745 11.3184 68.4679 11.3525 68.6726 11.4208L70.6064 7.76931C70.5382 7.71244 70.4585 7.64418 70.3903 7.57593C70.322 7.50768 70.2538 7.42805 70.1855 7.34842L70.2765 7.16642L73.2 8.71346Z" fill="white"/>
<path d="M73.9393 14.9471L72.3013 13.8665L72.415 13.6958C72.5174 13.7186 72.6198 13.7527 72.7221 13.7868C72.8245 13.821 72.9269 13.8665 73.0407 13.912L75.3157 10.4539L74.4284 9.86236L73.5753 10.488L73.4274 10.397C73.4616 10.3174 73.5184 10.215 73.5753 10.1126C73.6322 10.0102 73.689 9.90786 73.7573 9.79411C73.8142 9.69173 73.8824 9.57798 73.9393 9.48697C73.9962 9.3846 74.0531 9.2936 74.1099 9.21397L77.4884 11.4435C77.4315 11.5231 77.3746 11.6028 77.3064 11.7052C77.2381 11.7962 77.1699 11.8985 77.0903 11.9895C77.022 12.0919 76.9424 12.1829 76.8741 12.2853C76.8059 12.3763 76.7376 12.4673 76.6694 12.5355L76.5215 12.4332L76.7604 11.398L75.8731 10.8179L73.5981 14.276C73.6891 14.367 73.7687 14.4466 73.8369 14.5148C73.9166 14.5945 73.9734 14.6741 74.0417 14.7651L73.9393 14.9471Z" fill="white"/>
<path d="M78.9785 19.0422L77.6589 17.8478L77.7954 17.6999C77.9888 17.7568 78.1595 17.8478 78.3187 17.9502L81.0943 14.8902C81.0374 14.8106 80.9805 14.731 80.935 14.6514C80.8895 14.5717 80.844 14.4807 80.7985 14.3897L80.935 14.2418L82.2545 15.4362L82.118 15.5841C82.027 15.55 81.936 15.5159 81.845 15.4817C81.754 15.4362 81.663 15.3907 81.5834 15.3452L78.8078 18.4052C78.8647 18.4848 78.9216 18.5644 78.9785 18.6554C79.0353 18.7464 79.0808 18.8261 79.1036 18.9057L78.9785 19.0422Z" fill="white"/>
<path d="M83.1192 23.4217L81.9703 22.159L82.1182 22.0225C82.2092 22.068 82.2888 22.1135 82.3798 22.1704C82.4594 22.2273 82.5391 22.2728 82.6301 22.3297L84.9506 20.2252L85.5763 19.702L85.5422 19.6565L84.8369 19.9863L81.2309 21.3286L81.1058 21.1921L82.8348 17.7795L83.2671 17.0402L83.2216 16.9947L82.5732 17.5975L80.2527 19.702C80.2982 19.7816 80.3437 19.8612 80.3778 19.9409C80.4119 20.0205 80.4574 20.1115 80.4802 20.2025L80.3323 20.339L79.354 19.2583L79.5019 19.1218C79.5929 19.1673 79.6725 19.2128 79.7635 19.2583C79.8545 19.3038 79.9341 19.3607 80.0138 19.4176L83.0623 16.642C83.0055 16.5624 82.96 16.4714 82.9258 16.3804C82.8803 16.2894 82.8462 16.1984 82.8121 16.1074L82.96 15.9709L83.9155 17.0288L82.3798 20.066L82.0044 20.7257L82.7097 20.4072L85.8948 19.2015L86.7366 20.1229L86.5887 20.2594C86.509 20.2252 86.418 20.1797 86.3384 20.1342C86.2588 20.0887 86.1792 20.0432 86.0995 19.9863L83.0396 22.7733C83.0965 22.8529 83.142 22.9439 83.1761 23.0235C83.2102 23.1032 83.2443 23.1828 83.2785 23.2738L83.1192 23.4217Z" fill="white"/>
<path d="M89.1481 23.5241C88.9888 23.6264 88.841 23.7288 88.6817 23.8312C88.5225 23.9336 88.3632 24.0246 88.1926 24.1156L88.0902 23.9677L88.5452 23.2852L87.6579 22.0566L86.1564 23.1373L86.8162 24.0587L87.3963 23.9791L87.4987 24.1156C87.1461 24.4113 86.7593 24.6843 86.3612 24.9346L86.2588 24.7981L86.5318 24.2635L85.872 23.3421L84.2909 24.4796L85.2236 25.7764L86.0995 25.5716L86.2019 25.7081C86.0654 25.8446 85.9175 25.9811 85.7583 26.1062C85.599 26.2314 85.4398 26.3565 85.2691 26.4703L83.2671 23.6833L83.4263 23.5696C83.5856 23.6606 83.7335 23.7857 83.8927 23.9336L87.2484 21.522C87.2143 21.431 87.1688 21.34 87.1461 21.249C87.1119 21.1466 87.0892 21.0556 87.0664 20.9532L87.2257 20.8395L89.1481 23.5241Z" fill="white"/>
<path d="M86.4406 28.4041L85.5647 26.8684L85.7353 26.766C85.8946 26.8911 86.0311 27.0276 86.1676 27.1755L89.7508 25.128C89.6712 24.9232 89.6257 24.7298 89.6143 24.5478L89.7849 24.4455L90.6608 25.9811L90.4902 26.0835C90.4106 26.038 90.3423 25.9811 90.2741 25.9129C90.2058 25.8446 90.1376 25.7877 90.0807 25.7081L88.4995 26.6068L89.5802 28.5064L91.1613 27.6078C91.1386 27.5168 91.1045 27.4144 91.0931 27.3348C91.0703 27.2438 91.059 27.1642 91.059 27.0731L91.2296 26.9708L92.1055 28.5064L91.9348 28.6088C91.8552 28.5633 91.7756 28.4951 91.7073 28.4268C91.6391 28.3472 91.5708 28.2789 91.5026 28.1993L87.9194 30.2468C87.9535 30.3492 87.9876 30.4516 88.0104 30.5426C88.0331 30.645 88.0445 30.736 88.0559 30.8156L87.8853 30.918L87.0094 29.3823L87.18 29.2799C87.3279 29.3937 87.4644 29.5075 87.5895 29.6553L89.2844 28.6884L88.2038 26.7888L86.5089 27.7557C86.543 27.8467 86.5657 27.9377 86.5885 28.0287C86.6112 28.1197 86.6226 28.2107 86.6226 28.2903L86.4406 28.4041Z" fill="white"/>
<path d="M88.7725 32.9655L88.0217 31.3502L88.2037 31.2706C88.3516 31.3957 88.4881 31.5436 88.5905 31.7029L92.3443 29.9738C92.3216 29.8828 92.3102 29.7918 92.2988 29.6895C92.2875 29.5871 92.2761 29.4961 92.2761 29.3937L92.4581 29.3141L93.2088 30.9294L93.0268 31.009C92.9586 30.9521 92.8904 30.8839 92.8221 30.8042C92.7538 30.7246 92.697 30.6564 92.6401 30.5767L88.8862 32.3058C88.909 32.3968 88.9317 32.4992 88.9431 32.6015C88.9545 32.7039 88.9659 32.7949 88.9659 32.8859L88.7725 32.9655Z" fill="white"/>
<path d="M90.9453 39.2674L90.4106 37.3791L90.604 37.3223C90.6723 37.4133 90.7292 37.5043 90.786 37.5953C90.8429 37.6863 90.8998 37.7886 90.9453 37.9024L94.938 36.7763L94.6423 35.7525L93.5843 35.6729L93.5388 35.5022C93.6298 35.4681 93.7208 35.4226 93.8346 35.3771C93.9484 35.3316 94.0621 35.2975 94.1759 35.252C94.2896 35.2065 94.4034 35.1723 94.5171 35.1382C94.6309 35.1041 94.7333 35.07 94.8243 35.0472L95.9277 38.9376C95.8366 38.9603 95.7343 38.9944 95.6205 39.0172C95.5068 39.0399 95.393 39.0741 95.2679 39.0968C95.1428 39.1196 95.029 39.1537 94.9152 39.1764C94.8015 39.1992 94.6878 39.2219 94.5967 39.2333L94.5512 39.0627L95.4044 38.437L95.12 37.4133L91.1273 38.5394C91.1387 38.6645 91.15 38.7783 91.15 38.8807C91.1614 38.9831 91.15 39.0968 91.1387 39.1992L90.9453 39.2674Z" fill="white"/>
<path d="M91.4118 41.2695L91.1274 39.7452L91.3208 39.7111C91.4232 39.8589 91.5142 40.0182 91.5825 40.1775L96.4169 41.0647L96.4511 41.2581L92.265 43.8403C92.265 43.9313 92.265 44.0337 92.2536 44.1247C92.2422 44.2157 92.2308 44.3067 92.1967 44.3977L92.0033 44.4318L91.6734 42.6686L91.8668 42.6345C91.9237 42.7141 91.9692 42.8051 92.0147 42.8961C92.0602 42.9871 92.1057 43.0782 92.1398 43.1692L93.3115 42.4753L93.0044 40.8486L91.6621 40.6325C91.6734 40.8258 91.6507 41.0306 91.6052 41.2467L91.4118 41.2695ZM93.3797 40.8941L93.6414 42.2705L94.995 41.4629L95.5638 41.224V41.2126L94.9268 41.1557L93.3797 40.8941Z" fill="white"/>
<path d="M92.4582 45.7172C92.4582 45.8423 92.4469 45.9675 92.4241 46.0812C92.4014 46.195 92.3786 46.2973 92.3445 46.3997L92.1397 46.4111L91.9805 44.5114L92.1852 44.5001C92.2421 44.5911 92.2762 44.6821 92.3104 44.7731C92.3445 44.8641 92.3672 44.9664 92.4013 45.0574L96.5192 44.7162C96.5306 44.6024 96.5419 44.5114 96.5647 44.4091C96.5874 44.318 96.6102 44.2157 96.6443 44.1247L96.8491 44.1133L96.906 44.7389C96.9173 44.9209 96.9515 45.1257 96.9856 45.3418C97.0197 45.558 97.0538 45.7627 97.0652 45.9675C97.088 46.195 97.0766 46.4225 97.0425 46.6386C97.0083 46.8547 96.9515 47.0595 96.8491 47.2415C96.7467 47.4235 96.6102 47.5714 96.4168 47.6851C96.2348 47.8103 95.9959 47.8785 95.7115 47.9013C95.4385 47.924 95.1997 47.8899 94.9949 47.7989C94.7902 47.7079 94.6195 47.5828 94.483 47.4121C94.3465 47.2415 94.2328 47.0481 94.1531 46.832C94.0735 46.6045 94.028 46.377 94.0053 46.1381C94.0053 46.1153 94.0053 46.0812 93.9939 46.0357C93.9939 45.9902 93.9825 45.9333 93.9825 45.8765C93.9825 45.8196 93.9825 45.7627 93.9825 45.7172C93.9825 45.6603 93.9825 45.6262 93.9825 45.6035L92.4582 45.7172ZM96.6898 45.8423C96.6785 45.7286 96.6671 45.6376 96.6557 45.5693C96.6443 45.5011 96.6329 45.4328 96.6102 45.3759L94.3579 45.558C94.3465 45.5807 94.3465 45.6148 94.3465 45.6603C94.3465 45.7058 94.3465 45.7513 94.3465 45.7968C94.3465 45.8423 94.3465 45.8878 94.3465 45.9447C94.3465 45.9902 94.3579 46.0243 94.3579 46.0585C94.3693 46.2177 94.4034 46.377 94.4603 46.5135C94.5171 46.65 94.5968 46.7751 94.6992 46.8775C94.8015 46.9799 94.938 47.0595 95.0859 47.105C95.2338 47.1619 95.4158 47.1732 95.6319 47.1619C96.0073 47.1277 96.2917 47.0026 96.4623 46.7637C96.6443 46.5249 96.7126 46.2177 96.6898 45.8423Z" fill="white"/>
<path d="M92.3103 49.3687L92.333 47.8216H92.5378C92.6061 47.9923 92.6629 48.1629 92.697 48.3221L97.2585 50.1536V50.3583L92.6402 52.0419C92.6174 52.1329 92.5947 52.2239 92.5719 52.3149C92.5492 52.4059 92.515 52.4855 92.4582 52.5651H92.2534L92.2875 50.7678H92.4923C92.5264 50.8588 92.5605 50.9612 92.5833 51.0522C92.606 51.1546 92.6288 51.2456 92.6516 51.3366L93.9369 50.8816L93.9597 49.2208L92.697 48.743C92.6629 48.9364 92.606 49.1412 92.515 49.3345L92.3103 49.3687ZM94.3123 49.4028L94.2896 50.802L95.7798 50.2787L96.3826 50.1536V50.1422L95.7684 49.9602L94.3123 49.4028Z" fill="white"/>
<path d="M93.1749 56.0232L93.1522 56.2052C93.0157 56.2166 92.8564 56.2166 92.6517 56.2166C92.4583 56.2166 92.2649 56.2052 92.0829 56.1711C92.0374 56.0915 92.0033 56.0118 91.9691 55.9095C91.9464 55.8071 91.9236 55.7047 91.9123 55.5909C91.9009 55.4772 91.9009 55.3634 91.9009 55.2497C91.9009 55.1359 91.9123 55.0222 91.9236 54.9312C91.9578 54.5444 92.0488 54.2032 92.1739 53.9074C92.299 53.6116 92.481 53.3728 92.7085 53.1794C92.936 52.986 93.209 52.8495 93.5389 52.7699C93.8688 52.6903 94.2442 52.6675 94.6878 52.713C95.1428 52.7585 95.5182 52.8609 95.8253 53.0201C96.1325 53.1794 96.3714 53.3728 96.5534 53.6003C96.7354 53.8278 96.8491 54.1008 96.9174 54.3852C96.9856 54.6809 96.997 54.9767 96.9629 55.2838C96.9287 55.5909 96.8833 55.8412 96.8264 56.046C96.7695 56.2507 96.6899 56.4213 96.5989 56.5806C96.5192 56.5692 96.4396 56.5578 96.3372 56.5465C96.2349 56.5351 96.1325 56.5123 96.0187 56.4896C95.905 56.4668 95.8026 56.4441 95.7002 56.4213C95.5978 56.3986 95.4955 56.3758 95.4158 56.3531L95.4386 56.1711L96.4737 55.9095C96.5079 55.864 96.5306 55.7843 96.5534 55.6592C96.5761 55.5454 96.5875 55.4317 96.5989 55.3066C96.6216 55.0791 96.5989 54.8516 96.542 54.6354C96.4851 54.4193 96.36 54.2259 96.2007 54.0553C96.0415 53.8847 95.8254 53.7368 95.5637 53.6117C95.3021 53.4865 94.995 53.4183 94.6196 53.3728C94.2897 53.3386 93.9939 53.35 93.7209 53.4069C93.4479 53.4638 93.209 53.5548 93.0043 53.6913C92.7995 53.8278 92.6403 54.0098 92.5151 54.2259C92.39 54.442 92.3218 54.6923 92.2876 54.9767C92.2763 55.1246 92.2763 55.2611 92.2876 55.3634C92.299 55.4658 92.3218 55.5341 92.3559 55.5682L93.1749 56.0232Z" fill="white"/>
<path d="M91.5481 57.9684L91.8666 56.4555L92.06 56.501C92.0941 56.683 92.1169 56.8536 92.1169 57.0242L96.2461 59.6974L96.2006 59.8908L91.3434 60.6643C91.3092 60.7553 91.2637 60.8349 91.2296 60.9259C91.1841 61.0056 91.1386 61.0852 91.0703 61.1535L90.877 61.1079L91.2523 59.3448L91.4457 59.3903C91.4685 59.4927 91.4798 59.5837 91.4798 59.686C91.4798 59.7884 91.4912 59.8908 91.4912 59.9818L92.8335 59.7884L93.1748 58.1731L92.0259 57.4679C91.9576 57.6499 91.8666 57.8319 91.7415 58.0139L91.5481 57.9684ZM93.516 58.3779L93.2316 59.7429L94.79 59.5154H95.4043V59.504L94.8356 59.2083L93.516 58.3779Z" fill="white"/>
<path d="M93.4705 68.354L92.8335 69.7987L92.6515 69.719C92.6515 69.6394 92.6515 69.5598 92.6515 69.4802C92.6515 69.4005 92.6629 69.3209 92.6742 69.2413L88.8863 67.5691L88.2606 68.9796L92.0486 70.6518C92.151 70.5267 92.2761 70.4016 92.3899 70.2992L92.5719 70.3788L91.9235 71.8576L91.7415 71.778C91.7415 71.6983 91.7415 71.6187 91.7415 71.5277C91.7415 71.4367 91.7528 71.3457 91.7756 71.2547L87.999 69.5825C87.8852 69.7418 87.7715 69.8669 87.6464 69.9579L87.4644 69.8783L89.91 64.3158L90.0921 64.3954C90.1034 64.5888 90.0807 64.7594 90.0466 64.9187L93.8231 66.5795C93.88 66.5112 93.9369 66.443 93.9938 66.3747C94.0506 66.3065 94.1189 66.2496 94.1758 66.1927L94.3578 66.2723L93.698 67.7625L93.516 67.6829C93.5046 67.5464 93.516 67.3871 93.5388 67.1937L89.7508 65.5216L89.1252 66.9321L92.9131 68.6043C92.9814 68.536 93.0382 68.4678 93.0951 68.4109C93.152 68.354 93.2089 68.3085 93.2544 68.263L93.4705 68.354Z" fill="white"/>
<path d="M89.785 75.4181C89.6258 75.3157 89.4665 75.2133 89.3186 75.1109C89.1594 75.0085 89.0115 74.8948 88.8522 74.781L88.9432 74.6218L89.7509 74.7697L90.5244 73.4615L88.9319 72.5174L88.3517 73.4956L88.6589 73.9961L88.5679 74.144C88.1584 73.9279 87.7602 73.689 87.3621 73.4274L87.4531 73.2795L88.0446 73.3136L88.6247 72.3354L86.9526 71.3457L86.1336 72.7221L86.6796 73.4388L86.5886 73.5866C86.4066 73.5184 86.2246 73.4388 86.0425 73.3478C85.8605 73.2567 85.6899 73.1544 85.5193 73.0406L87.2711 70.0831L87.4417 70.1854C87.419 70.3674 87.3735 70.5608 87.2938 70.7656L90.8429 72.87C90.9112 72.8017 90.9794 72.7335 91.0477 72.6652C91.1273 72.597 91.1955 72.5287 91.2752 72.4719L91.4458 72.5742L89.785 75.4181Z" fill="white"/>
<path d="M85.2577 73.4729L85.417 73.5866C85.3828 73.7914 85.3146 73.9734 85.2122 74.144L88.5452 76.5783C88.6134 76.5101 88.693 76.4532 88.7727 76.3963C88.8523 76.3394 88.9433 76.2826 89.0229 76.2257L89.1822 76.3394L88.7499 76.931C88.693 76.9992 88.6475 77.0675 88.602 77.1357C88.5565 77.204 88.511 77.2722 88.4655 77.3518C88.42 77.4201 88.3631 77.4997 88.3063 77.5907C88.2494 77.6704 88.1812 77.7727 88.1015 77.8751C87.9878 78.023 87.8626 78.1709 87.7261 78.3074C87.5896 78.4439 87.4418 78.5576 87.2825 78.6259C87.1232 78.7055 86.9526 78.7396 86.7706 78.7283C86.5886 78.7169 86.4066 78.6373 86.2132 78.5007C86.1108 78.4325 86.0312 78.3415 85.9516 78.2391C85.872 78.1367 85.8151 78.023 85.781 77.8979C85.7468 77.7727 85.7241 77.6476 85.7241 77.4997C85.7241 77.3518 85.7582 77.2153 85.8265 77.0675L85.8037 77.0561C85.7013 77.1585 85.5876 77.2381 85.4625 77.3177C85.3373 77.3973 85.2008 77.4542 85.0643 77.477C84.9278 77.5111 84.7799 77.5111 84.6207 77.477C84.4728 77.4542 84.3136 77.3746 84.1543 77.2608C83.9495 77.113 83.813 76.9423 83.7334 76.749C83.6538 76.5556 83.6197 76.3508 83.631 76.1347C83.6424 75.9186 83.6993 75.7024 83.7903 75.4977C83.8813 75.2929 83.9951 75.0768 84.1316 74.8948C84.2226 74.7583 84.3363 74.6218 84.4728 74.4625C84.6093 74.3033 84.7231 74.1554 84.8368 73.9961L85.2577 73.4729ZM84.4273 75.1564C84.3249 75.2929 84.2567 75.4294 84.2112 75.5773C84.1657 75.7252 84.1543 75.8731 84.1657 76.0096C84.177 76.1461 84.2112 76.2826 84.2794 76.4077C84.3477 76.5328 84.4387 76.6352 84.5638 76.7262C84.7117 76.84 84.8596 76.8968 84.9961 76.9082C85.1326 76.9196 85.2691 76.8968 85.4056 76.84C85.5307 76.7831 85.6558 76.7035 85.781 76.5897C85.9061 76.4759 86.0085 76.3508 86.1109 76.2143L86.418 75.7934L84.8709 74.6559C84.8141 74.7014 84.7572 74.7469 84.7003 74.8152C84.6321 74.8948 84.5411 74.9972 84.4273 75.1564ZM86.4976 76.2826C86.4521 76.3508 86.3952 76.4191 86.3384 76.5214C86.2815 76.6125 86.236 76.6921 86.2018 76.749C86.1336 76.9651 86.1336 77.1812 86.1791 77.386C86.236 77.5907 86.3497 77.7614 86.5317 77.8979C86.782 78.0799 87.0209 78.1367 87.2484 78.0799C87.4759 78.023 87.692 77.8751 87.8626 77.6249C87.9423 77.5111 88.0219 77.4087 88.0788 77.3177C88.1356 77.2267 88.1812 77.1585 88.2153 77.1016L86.7137 75.9982L86.4976 76.2826Z" fill="white"/>
<path d="M80.1047 79.8317L81.2878 78.5121L81.4356 78.6486C81.4015 78.7624 81.356 78.8761 81.3105 78.9671C81.265 79.0581 81.1968 79.1491 81.1399 79.2401L82.4708 80.4345C82.5049 80.298 82.5618 80.1274 82.6528 79.9227C82.7438 79.7179 82.8689 79.5245 83.0509 79.3312C83.1761 79.1833 83.3126 79.0695 83.4491 78.9671C83.5856 78.8761 83.7334 78.8079 83.8813 78.7851C84.0292 78.7624 84.1885 78.7851 84.3591 78.842C84.5297 78.9103 84.7117 79.024 84.9051 79.1946L85.9175 80.1047C85.9857 80.0478 86.054 80.0023 86.1336 79.9568C86.2133 79.9113 86.2929 79.8772 86.3839 79.843L86.5318 79.9795L85.4397 81.1967L85.2919 81.0602C85.3146 80.9919 85.3374 80.9123 85.3601 80.8441C85.3829 80.7644 85.4284 80.6848 85.4625 80.6052L84.5525 79.7862C84.3136 79.57 84.0747 79.4449 83.8472 79.4108C83.6197 79.3766 83.3922 79.479 83.1874 79.7065C83.0623 79.8544 82.9486 80.0137 82.8803 80.1729C82.8007 80.3435 82.7552 80.5028 82.7324 80.6507L84.2226 81.993C84.2908 81.9475 84.3705 81.902 84.4501 81.8565C84.5297 81.811 84.6093 81.7768 84.6776 81.7427L84.8255 81.8792L83.7448 83.085L83.5969 82.9485C83.6197 82.8802 83.6425 82.8006 83.6652 82.7323C83.6993 82.6527 83.7334 82.5731 83.7676 82.4935L80.6962 79.7407C80.6166 79.7975 80.5484 79.843 80.4801 79.8885C80.4119 79.934 80.3436 79.9568 80.2754 79.9795L80.1047 79.8317Z" fill="white"/>
<path d="M80.7644 85.8492C80.6393 85.7127 80.5255 85.5648 80.4004 85.4169C80.2866 85.269 80.1615 85.1212 80.0591 84.9619L80.1956 84.8368L80.9236 85.2122L82.0384 84.1884L80.7871 82.8347L79.9567 83.6082L80.1046 84.177L79.9795 84.2908C79.6496 83.9723 79.3311 83.631 79.024 83.2556L79.1491 83.1419L79.7065 83.3466L80.5369 82.5731L79.2173 81.1398L78.0343 82.2205L78.3528 83.0622L78.2277 83.176C78.0684 83.0509 77.9206 82.9257 77.7727 82.7892C77.6248 82.6527 77.4883 82.5049 77.3518 82.3456L79.8771 80.025L80.0136 80.1729C79.9454 80.3322 79.843 80.5028 79.7065 80.6848L82.5048 83.722C82.5844 83.6765 82.6754 83.631 82.7664 83.5855C82.8574 83.54 82.9484 83.5059 83.0394 83.4717L83.1759 83.6196L80.7644 85.8492Z" fill="white"/>
<path d="M75.5888 83.7561L76.9993 82.6982L77.1244 82.8575C77.0221 83.0281 76.8969 83.1874 76.7718 83.3352L79.2402 86.6454C79.4336 86.5431 79.627 86.4748 79.7976 86.4407L79.9227 86.5999L78.5122 87.6578L78.3871 87.4986C78.4212 87.419 78.4667 87.3393 78.5236 87.2597C78.5805 87.1801 78.6373 87.1118 78.6942 87.0436L77.6136 85.5875L75.8618 86.8957L76.9424 88.3517C77.0334 88.3176 77.1244 88.2835 77.204 88.2494C77.2951 88.2152 77.3747 88.1925 77.4657 88.1811L77.5908 88.3404L76.1803 89.3983L76.0551 89.239C76.0893 89.148 76.1462 89.0684 76.2144 88.9887C76.2827 88.9091 76.3395 88.8295 76.4078 88.7612L73.9394 85.451C73.837 85.4965 73.746 85.542 73.655 85.5762C73.564 85.6103 73.473 85.633 73.382 85.6558L73.2568 85.4965L74.6674 84.4386L74.7925 84.5979C74.7015 84.7571 74.5991 84.905 74.474 85.0415L75.6343 86.6113L77.3861 85.3032L76.2258 83.7334C76.1348 83.7789 76.0551 83.813 75.9641 83.8358C75.8731 83.8699 75.7935 83.8926 75.7025 83.904L75.5888 83.7561Z" fill="white"/>
<path d="M73.3706 91.0818L72.0396 91.8553L71.9373 91.6847C71.9941 91.6051 72.0624 91.5254 72.1193 91.4572C72.1761 91.3889 72.2444 91.3207 72.3013 91.2638L72.5743 88.9546C72.3923 88.8864 72.1989 88.7954 71.9714 88.7157C71.7439 88.6247 71.505 88.5337 71.2661 88.4427C71.0272 88.3517 70.777 88.2607 70.5153 88.1697C70.2651 88.0787 70.0148 87.9991 69.776 87.9195L69.4006 87.9422L69.3096 87.7943L70.0603 87.3507L70.3447 87.3735C70.7429 87.51 71.1524 87.6692 71.5733 87.8512C71.9941 88.0332 72.415 88.2266 72.8245 88.42L73.1203 88.2494L72.1306 86.5544C71.9259 86.6341 71.7439 86.6682 71.596 86.6796L71.4936 86.5089L73.0179 85.6217L73.1203 85.7923C72.9952 85.9515 72.8587 86.0994 72.7108 86.2246L74.8038 89.785C74.9972 89.7054 75.1906 89.6599 75.384 89.6485L75.4863 89.8191L73.9621 90.7064L73.8597 90.5358C73.9052 90.4675 73.9621 90.3993 74.0189 90.331C74.0758 90.2628 74.1441 90.1945 74.2237 90.1263L73.2454 88.4655L72.9383 88.7612L72.7449 91.0022C72.8359 90.9794 72.9269 90.9567 73.0065 90.9339C73.0975 90.9112 73.1772 90.8998 73.2568 90.8998L73.3706 91.0818Z" fill="white"/>
<path d="M68.0127 88.3972L69.4232 87.7602L69.5028 87.9422C69.3777 88.0787 69.2526 88.2039 69.1161 88.3062L69.4004 93.2204L69.2184 93.3L65.7262 89.8419C65.6352 89.8646 65.5442 89.8874 65.4532 89.8988C65.3622 89.9101 65.2712 89.9215 65.1802 89.9102L65.1006 89.7281L66.7386 88.9887L66.8182 89.1708C66.75 89.239 66.6704 89.3073 66.6021 89.3755C66.5225 89.4438 66.4429 89.5006 66.3746 89.5575L67.3301 90.5244L68.8431 89.8419L68.7293 88.4882C68.5359 88.5451 68.3312 88.5792 68.115 88.5792L68.0127 88.3972ZM68.8431 90.2173L67.569 90.7974L68.6724 91.9122L69.0364 92.4013H69.0478L68.9568 91.7757L68.8431 90.2173Z" fill="white"/>
<path d="M62.2114 94.483C62.4879 94.483 62.712 94.2589 62.712 93.9825C62.712 93.7061 62.4879 93.482 62.2114 93.482C61.935 93.482 61.7109 93.7061 61.7109 93.9825C61.7109 94.2589 61.935 94.483 62.2114 94.483Z" fill="white"/>
<path d="M38.4029 94.483C38.6793 94.483 38.9034 94.2589 38.9034 93.9825C38.9034 93.7061 38.6793 93.482 38.4029 93.482C38.1264 93.482 37.9023 93.7061 37.9023 93.9825C37.9023 94.2589 38.1264 94.483 38.4029 94.483Z" fill="white"/>
<path d="M50.6426 80.5255C52.565 80.5255 54.1348 78.9671 54.1348 77.0333V71.3229H50.6426V80.5255Z" fill="#862C2C"/>
<path d="M55.8525 77.1243C57.775 77.1243 59.3447 75.5659 59.3447 73.6321V71.3229H55.8525V77.1243Z" fill="#862C2C"/>
<path d="M60.9713 73.689H61.415C62.2567 73.689 63.0075 73.3477 63.5649 72.8017C63.963 72.4036 64.2474 71.8917 64.3725 71.3343H60.96V73.689H60.9713Z" fill="#862C2C"/>
<path d="M45.4897 77.0333C45.4897 78.9557 47.0482 80.5255 48.982 80.5255V71.3343H45.4897V77.0333Z" fill="#862C2C"/>
<path d="M40.2798 73.6435C40.2798 75.5659 41.8382 77.1357 43.772 77.1357V71.3343H40.2798V73.6435Z" fill="#862C2C"/>
<path d="M36.0483 72.8017C36.6057 73.3477 37.3564 73.689 38.1982 73.689H38.6418V71.3229H35.2292C35.3658 71.8917 35.6501 72.4036 36.0483 72.8017Z" fill="#862C2C"/>
<path d="M61.9043 26.5954H54.681V25.6854H44.7731V26.5954H37.5498V28.5519H61.9043V26.5954Z" fill="#862C2C"/>
<path d="M70.1171 29.5188H29.405V31.4754H70.1171V29.5188Z" fill="#862C2C"/>
<path d="M70.1171 32.4423H29.405V34.3988H70.1171V32.4423Z" fill="#862C2C"/>
<path d="M30.6677 54.2828C30.7474 54.3283 30.8497 54.3738 30.9521 54.4193C31.0545 54.4534 31.1569 54.4876 31.2592 54.4989V58.6509C31.0545 58.685 30.8611 58.7533 30.6677 58.867V59.1514H32.9542V58.867C32.8631 58.8102 32.7721 58.7647 32.6698 58.7305C32.5674 58.6964 32.465 58.6737 32.3626 58.6509V54.4989C32.465 54.4876 32.5674 54.4534 32.6698 54.4193C32.7721 54.3852 32.8745 54.3397 32.9542 54.2828V53.9984H30.6677V54.2828Z" fill="#862C2C"/>
<path d="M35.5591 58.867C35.4795 58.8102 35.3885 58.7647 35.3089 58.7305C35.2293 58.6964 35.1383 58.6737 35.0359 58.6509V56.7512H36.9811V58.6509C36.8787 58.6737 36.7877 58.6964 36.6967 58.7419C36.6057 58.776 36.526 58.8215 36.4578 58.867V59.1514H38.6873V58.867C38.6077 58.8215 38.5167 58.776 38.4143 58.7419C38.312 58.7078 38.1982 58.6737 38.0845 58.6509V54.4989C38.1868 54.4762 38.2892 54.4534 38.403 54.4193C38.5053 54.3852 38.6077 54.3397 38.6873 54.2828V53.9984H36.4578V54.2828C36.526 54.3283 36.6057 54.3738 36.6853 54.4079C36.7763 54.4421 36.8673 54.4762 36.9811 54.4989V56.2735H35.0359V54.4989C35.1269 54.4876 35.2179 54.4534 35.3089 54.4193C35.3999 54.3852 35.4795 54.3397 35.5591 54.2828V53.9984H33.3296V54.2828C33.3978 54.3283 33.4888 54.3738 33.5912 54.4079C33.6936 54.4421 33.8073 54.4762 33.9325 54.4989V58.6509C33.8301 58.6737 33.7277 58.6964 33.6254 58.7419C33.5116 58.776 33.4206 58.8215 33.3296 58.867V59.1514H35.5591V58.867Z" fill="#862C2C"/>
<path d="M40.7803 54.8971C40.9168 54.7264 41.076 54.5899 41.2467 54.5103C41.4173 54.4307 41.6107 54.3852 41.8154 54.3852C41.9178 54.3852 42.0202 54.3965 42.1112 54.4079C42.2136 54.4193 42.2818 54.4421 42.3273 54.4648L42.7368 55.5682H43.0439C43.0667 55.4772 43.0894 55.3748 43.1008 55.2383C43.1236 55.1132 43.1463 54.9767 43.1577 54.8402C43.1804 54.7037 43.1918 54.5785 43.1918 54.4534C43.2032 54.3283 43.2032 54.2259 43.2032 54.1577C43.0326 54.078 42.8278 54.0212 42.5662 53.9757C42.3046 53.9302 42.0088 53.9074 41.6903 53.9074C41.349 53.9074 41.0191 53.9529 40.712 54.0553C40.4049 54.1577 40.1319 54.3169 39.893 54.533C39.6541 54.7492 39.4721 55.0222 39.3356 55.3634C39.1991 55.6933 39.1309 56.1028 39.1309 56.5692C39.1309 57.0356 39.1991 57.4451 39.3242 57.775C39.4494 58.1049 39.6314 58.3893 39.8589 58.6054C40.0864 58.8215 40.3708 58.9808 40.7006 59.0832C41.0305 59.1855 41.3945 59.231 41.804 59.231C42.0771 59.231 42.3387 59.2083 42.5889 59.1628C42.8506 59.1173 43.0553 59.0377 43.226 58.9353C43.226 58.8329 43.2259 58.7305 43.2146 58.6054C43.2146 58.4803 43.2032 58.3551 43.1918 58.23C43.1805 58.1049 43.1691 57.9911 43.1463 57.8774C43.1236 57.7636 43.1122 57.6726 43.0894 57.593H42.7937L42.4297 58.6168C42.3956 58.6509 42.3273 58.685 42.2363 58.7078C42.1453 58.7305 42.0202 58.7419 41.8837 58.7419C41.4059 58.7419 41.0191 58.5485 40.7461 58.1731C40.4618 57.7978 40.3253 57.2631 40.3253 56.5578C40.3253 56.1711 40.3594 55.8412 40.439 55.5682C40.53 55.2952 40.6324 55.0791 40.7803 54.8971Z" fill="#862C2C"/>
<path d="M45.1371 58.7419C45.012 58.7874 44.8982 58.8215 44.8072 58.867V59.1514H47.3325V58.867C47.2302 58.8215 47.1278 58.776 47.0026 58.7419C46.8775 58.7078 46.7524 58.6737 46.6273 58.6509V54.4762H47.4804L47.9468 55.7275H48.2426C48.2653 55.6251 48.2767 55.5 48.2994 55.3521C48.3222 55.2042 48.3336 55.0449 48.3563 54.8857C48.3677 54.7264 48.379 54.5672 48.3904 54.4079C48.4018 54.2487 48.4018 54.1122 48.4018 53.9984H43.7266C43.7266 54.1122 43.7266 54.2487 43.7379 54.4079C43.7493 54.5672 43.7607 54.7264 43.7721 54.8857C43.7834 55.0449 43.8062 55.2042 43.8289 55.3521C43.8517 55.5 43.8631 55.6251 43.8858 55.7275H44.1816L44.648 54.4762H45.5011V58.6509C45.3874 58.6737 45.2622 58.6964 45.1371 58.7419Z" fill="#862C2C"/>
<path d="M48.6521 54.2828C48.7431 54.3397 48.8341 54.3738 48.9479 54.4079C49.0502 54.4421 49.164 54.4648 49.255 54.4876V58.6395C49.1526 58.6509 49.0502 58.685 48.9479 58.7192C48.8455 58.7533 48.7431 58.7988 48.6521 58.8557V59.14H50.8589V58.8557C50.7793 58.8215 50.6883 58.776 50.5973 58.7419C50.4949 58.7078 50.3925 58.6737 50.2788 58.6509V58.4916L52.1557 55.8753L52.4856 55.2952L52.4173 55.8753V58.6623C52.3149 58.685 52.2126 58.7192 52.1102 58.7647C52.0192 58.8102 51.9282 58.8443 51.8599 58.8784V59.1628H54.0667V58.8784C53.9757 58.8329 53.8847 58.7874 53.7823 58.7533C53.68 58.7192 53.5776 58.685 53.4638 58.6737V54.4989C53.5662 54.4762 53.68 54.4421 53.7823 54.4193C53.8847 54.3852 53.9871 54.3397 54.0667 54.2942V54.0098H51.8599V54.2942C52.0192 54.3852 52.2126 54.4534 52.4401 54.5103V54.6809L50.5859 57.2631L50.2219 57.866L50.2901 57.2972V54.4989C50.3925 54.4762 50.4949 54.4534 50.5859 54.4079C50.6769 54.3738 50.7565 54.3283 50.8361 54.2828V53.9984H48.6521V54.2828Z" fill="#862C2C"/>
<path d="M54.351 54.4079C54.3623 54.5672 54.3737 54.7264 54.3851 54.8857C54.3965 55.0449 54.4192 55.2042 54.442 55.3521C54.4647 55.5 54.4761 55.6251 54.4989 55.7275H54.7946L55.261 54.4762H56.1141V58.6509C55.989 58.6737 55.8639 58.6964 55.7388 58.7419C55.6136 58.7874 55.4999 58.8215 55.4089 58.867V59.1514H57.9342V58.867C57.8318 58.8215 57.7294 58.776 57.6043 58.7419C57.4792 58.7078 57.354 58.6737 57.2289 58.6509V54.4762H58.0821L58.5485 55.7275H58.8442C58.867 55.6251 58.8783 55.5 58.9011 55.3521C58.9238 55.2042 58.9352 55.0449 58.958 54.8857C58.9693 54.7264 58.9807 54.5672 58.9921 54.4079C59.0035 54.2487 59.0035 54.1122 59.0035 53.9984H54.3396C54.3396 54.1122 54.3396 54.2487 54.351 54.4079Z" fill="#862C2C"/>
<path d="M59.1172 54.2828C59.1854 54.3283 59.2651 54.3624 59.3561 54.4079C59.4471 54.4421 59.5267 54.4762 59.6291 54.4989L61.5856 57.866C61.5515 57.9456 61.5287 58.0139 61.4946 58.0821C61.4605 58.1504 61.4264 58.1959 61.3809 58.2414L60.505 57.9684L60.3002 58.2641C60.3002 58.321 60.323 58.4006 60.3457 58.4803C60.3685 58.5713 60.4026 58.6509 60.4367 58.7419C60.4708 58.8329 60.5163 58.9125 60.5505 59.0035C60.596 59.0832 60.6301 59.14 60.6756 59.1855C60.96 59.2424 61.233 59.14 61.4946 58.8784C61.7449 58.6168 61.9951 58.2186 62.234 57.6726L63.6332 54.4989C63.7469 54.4648 63.8493 54.442 63.9403 54.3965C64.0313 54.3624 64.0996 54.3169 64.1564 54.2828V53.9984H62.3819V54.2828C62.4615 54.3283 62.5525 54.3624 62.6435 54.4079C62.7345 54.4421 62.8369 54.4762 62.9506 54.4989L62.2226 56.4782L62.0748 56.9674H62.0634L61.9041 56.501L60.869 54.5103C61.0965 54.4534 61.2785 54.3852 61.4264 54.2942V54.0098H59.1172V54.2828Z" fill="#862C2C"/>
<path d="M64.2703 54.4079C64.2817 54.5672 64.2931 54.7264 64.3044 54.8857C64.3158 55.0449 64.3386 55.2042 64.3613 55.3521C64.3841 55.5 64.3954 55.6251 64.4182 55.7275H64.7139L65.1803 54.4762H66.0335V58.6509C65.9084 58.6737 65.7832 58.6964 65.6581 58.7419C65.533 58.7874 65.4192 58.8215 65.3282 58.867V59.1514H67.8535V58.867C67.7512 58.8215 67.6488 58.776 67.5236 58.7419C67.3985 58.7078 67.2734 58.6737 67.1483 58.6509V54.4762H68.0014L68.4678 55.7275H68.7635C68.7863 55.6251 68.7977 55.5 68.8204 55.3521C68.8432 55.2042 68.8546 55.0449 68.8773 54.8857C68.8887 54.7264 68.9 54.5672 68.9114 54.4079C68.9228 54.2487 68.9228 54.1122 68.9228 53.9984H64.2476C64.2476 54.1122 64.2589 54.2487 64.2703 54.4079Z" fill="#862C2C"/>
<path d="M39.04 67.3416V63.1669H40.9056V67.3416C40.7805 67.3757 40.6781 67.3985 40.5984 67.444C40.5188 67.4781 40.4619 67.5236 40.4051 67.5577V67.8421H42.6119V67.5577C42.3957 67.4326 42.191 67.3644 42.009 67.3416V63.1896C42.1114 63.1669 42.2137 63.1441 42.3161 63.11C42.4185 63.0759 42.5209 63.0304 42.6119 62.9735V62.6891H37.3337V62.9735C37.4247 63.0304 37.5271 63.0759 37.6295 63.11C37.7319 63.1441 37.8343 63.1669 37.9366 63.1896V67.3416C37.8001 67.3644 37.6864 67.3871 37.5954 67.4326C37.493 67.4781 37.4134 67.5122 37.3337 67.5577V67.8421H39.5405V67.5577C39.4609 67.5122 39.3813 67.4667 39.3017 67.4326C39.222 67.3985 39.131 67.3644 39.04 67.3416Z" fill="#862C2C"/>
<path d="M44.6025 67.3416V65.8742C44.6253 65.8742 44.6708 65.8856 44.7277 65.8856C44.7845 65.8856 44.8414 65.8856 44.8983 65.8969C44.9552 65.8969 45.012 65.8969 45.0689 65.8969C45.1258 65.8969 45.1599 65.8969 45.1827 65.8969C45.4443 65.8969 45.7059 65.8628 45.9562 65.7946C46.2064 65.7263 46.4226 65.6239 46.6159 65.4874C46.8093 65.3509 46.9572 65.1803 47.071 64.9642C47.1847 64.7594 47.2416 64.5092 47.2416 64.2134C47.2416 63.9063 47.1847 63.656 47.071 63.4513C46.9572 63.2465 46.798 63.0873 46.6046 62.9621C46.4112 62.837 46.1951 62.7574 45.9448 62.7005C45.6945 62.6436 45.4443 62.6209 45.1827 62.6209C44.9665 62.6209 44.739 62.6322 44.4888 62.655C44.2385 62.6777 44.011 62.6891 43.8176 62.6891H42.8962V62.9735C42.9759 63.019 43.0669 63.0645 43.1806 63.0986C43.283 63.1327 43.3854 63.1669 43.4991 63.1782V67.3302C43.3967 67.353 43.2944 67.3757 43.192 67.4099C43.0896 67.444 42.9872 67.4895 42.8962 67.5464V67.8307H45.3419V67.5464C45.2395 67.5009 45.1258 67.4553 44.9893 67.4212C44.8642 67.3985 44.739 67.3644 44.6025 67.3416ZM44.6025 63.1555C44.6594 63.1441 44.7163 63.1327 44.7732 63.1214C44.83 63.11 44.9097 63.11 45.0007 63.11C45.3192 63.11 45.5694 63.201 45.7628 63.3944C45.9562 63.5764 46.0472 63.8721 46.0472 64.2589C46.0472 64.4637 46.0131 64.6457 45.9562 64.7822C45.8993 64.93 45.8197 65.0438 45.7287 65.1462C45.6377 65.2372 45.5239 65.3054 45.3988 65.3509C45.2737 65.3964 45.1485 65.4192 45.012 65.4192C44.9552 65.4192 44.8869 65.4192 44.7959 65.4192C44.7049 65.4192 44.6367 65.4078 44.6025 65.3964V63.1555Z" fill="#862C2C"/>
<path d="M49.8806 67.5577V67.8421H52.1784V67.5577C52.1102 67.5122 52.0192 67.4667 51.9168 67.4326C51.8144 67.3985 51.7234 67.3644 51.6211 67.353L49.7783 62.6209H49.2323L47.3326 67.353C47.2416 67.3757 47.1506 67.3985 47.0596 67.4326C46.9686 67.4667 46.889 67.5122 46.8093 67.5577V67.8421H48.618V67.5577C48.4132 67.444 48.2085 67.3757 47.981 67.3416L48.4132 66.1699H50.0399L50.4608 67.3416C50.3584 67.3644 50.256 67.3871 50.1536 67.4326C50.074 67.4781 49.9717 67.5122 49.8806 67.5577ZM48.6066 65.7036L49.1185 64.3158L49.2778 63.6674H49.2891L49.4256 64.3044L49.9034 65.7036H48.6066Z" fill="#862C2C"/>
<path d="M56.4896 67.0572C56.6033 66.8638 56.6602 66.6363 56.6602 66.3747C56.6602 66.1586 56.6147 65.9766 56.5351 65.8287C56.4554 65.6694 56.3531 65.5443 56.2279 65.4419C56.1028 65.3395 55.9549 65.2599 55.7957 65.203C55.6364 65.1462 55.4772 65.112 55.3179 65.0893V65.0552C55.4772 65.021 55.6251 64.9755 55.7502 64.9073C55.8867 64.839 56.0004 64.748 56.1028 64.6457C56.2052 64.5433 56.2848 64.4295 56.3417 64.293C56.3986 64.1565 56.4213 64.0086 56.4213 63.8608C56.4213 63.6105 56.3644 63.4058 56.2621 63.2465C56.1597 63.0872 56.0232 62.9621 55.8526 62.8711C55.6819 62.7801 55.4885 62.7232 55.261 62.6891C55.0449 62.655 54.8174 62.6322 54.5785 62.6322C54.3624 62.6322 54.169 62.6436 54.0098 62.655C53.8505 62.6664 53.6685 62.6777 53.4865 62.6777H52.3035V62.9621C52.3945 63.0076 52.4855 63.0531 52.5992 63.0872C52.7016 63.1214 52.8154 63.1555 52.9064 63.1669V67.3188C52.804 67.3302 52.7016 67.353 52.5992 67.3871C52.4968 67.4212 52.3945 67.4781 52.3035 67.5236V67.808H53.1794C53.259 67.808 53.35 67.808 53.4751 67.8194C53.5889 67.8194 53.714 67.8307 53.8278 67.8307C53.9529 67.8307 54.078 67.8421 54.1918 67.8421C54.3169 67.8421 54.4306 67.8535 54.533 67.8535C54.806 67.8535 55.0677 67.8307 55.3293 67.7739C55.5909 67.717 55.807 67.626 56.0118 67.5008C56.2166 67.4098 56.3758 67.2506 56.4896 67.0572ZM53.987 63.1555C54.0553 63.1441 54.1235 63.1327 54.2031 63.1327C54.2828 63.1327 54.3738 63.1214 54.4875 63.1214C54.7378 63.1214 54.9539 63.1896 55.1132 63.3375C55.2724 63.4854 55.352 63.7129 55.352 64.02C55.352 64.2361 55.2952 64.4181 55.1814 64.5774C55.0677 64.7367 54.9084 64.8618 54.715 64.9414C54.6468 64.9528 54.5671 64.9642 54.4761 64.9642C54.3965 64.9755 54.3055 64.9755 54.2259 64.9755H53.987V63.1555ZM55.261 67.1255C55.0904 67.3075 54.8401 67.3985 54.533 67.3985C54.3851 67.3985 54.2714 67.3985 54.1918 67.3871C54.1121 67.3757 54.0439 67.3643 53.9756 67.353V65.4647H54.3624C54.533 65.4647 54.6809 65.476 54.8288 65.5102C54.9653 65.5329 55.0904 65.5898 55.1928 65.6581C55.2952 65.7263 55.3748 65.8287 55.4317 65.9424C55.4885 66.0676 55.5227 66.2154 55.5227 66.3974C55.534 66.7046 55.443 66.9435 55.261 67.1255Z" fill="#862C2C"/>
<path d="M59.9932 67.5577V67.8421H62.291V67.5577C62.2228 67.5122 62.1318 67.4667 62.0294 67.4326C61.927 67.3985 61.836 67.3644 61.7336 67.353L59.8908 62.6209H59.3448L57.4451 67.353C57.3541 67.3757 57.2631 67.3985 57.1721 67.4326C57.0811 67.4667 57.0015 67.5122 56.9219 67.5577V67.8421H58.7305V67.5577C58.5258 67.444 58.321 67.3757 58.0935 67.3416L58.5258 66.1699H60.1525L60.5733 67.3416C60.471 67.3644 60.3686 67.3871 60.2662 67.4326C60.1866 67.4781 60.0842 67.5122 59.9932 67.5577ZM58.7305 65.7036L59.2424 64.3158L59.4017 63.6674H59.4131L59.5496 64.3044L60.0273 65.7036H58.7305Z" fill="#862C2C"/>
<path d="M32.8289 37.1403L33.1133 35.7525H29.7804L29.951 37.1403H30.224V51.166H29.9624L29.7349 52.5538H33.0678L32.8517 51.166H32.6469V37.1403H32.8289ZM31.9303 51.1546H30.9293V37.1403H31.9303V51.1546Z" fill="#862C2C"/>
<path d="M38.1527 37.1403L38.437 35.7525H35.1041L35.2747 37.1403H35.5477V51.166H35.2861L35.0586 52.5538H38.3916L38.1754 51.166H37.9707V37.1403H38.1527ZM37.2654 51.1546H36.2644V37.1403H37.2654V51.1546Z" fill="#862C2C"/>
<path d="M43.3512 37.1403L43.6355 35.7525H40.3026L40.4732 37.1403H40.7462V51.166H40.4846L40.2571 52.5538H43.59L43.3739 51.166H43.1692V37.1403H43.3512ZM42.4639 51.1546H41.4629V37.1403H42.4639V51.1546Z" fill="#862C2C"/>
<path d="M45.6147 51.1546L45.3872 52.5424H48.7202L48.504 51.1546H48.2993V37.1403H48.4699L48.7543 35.7525H45.4213L45.592 37.1403H45.865V51.166H45.6147V51.1546ZM46.593 37.1403H47.594V51.166H46.593V37.1403Z" fill="#862C2C"/>
<path d="M50.8134 51.1546L50.5859 52.5424H53.9189L53.7028 51.1546H53.498V37.1403H53.6686L53.953 35.7525H50.6201L50.7907 37.1403H51.0637V51.166H50.8134V51.1546ZM51.7917 37.1403H52.7927V51.166H51.7917V37.1403Z" fill="#862C2C"/>
<path d="M56.0119 51.1546L55.7844 52.5424H59.1174L58.9013 51.1546H58.6965V37.1403H58.8671L59.1515 35.7525H55.8186L55.9892 37.1403H56.2622V51.166H56.0119V51.1546ZM56.9788 37.1403H57.9799V51.166H56.9788V37.1403Z" fill="#862C2C"/>
<path d="M61.0852 51.1887L60.8577 52.5765H64.1906L63.9745 51.1887H63.7697V37.1744H63.9404L64.2247 35.7866H60.8918L61.0624 37.1744H61.3354V51.2001H61.0852V51.1887ZM62.0521 37.1744H63.0531V51.2001H62.0521V37.1744Z" fill="#862C2C"/>
<path d="M68.8885 37.1744L69.1729 35.7866H65.8399L66.0106 37.1744H66.2836V51.2001H66.0219L65.7944 52.5879H69.1274L68.9113 51.2001H68.7065V37.1744H68.8885ZM68.0012 51.1887H67.0002V37.1744H68.0012V51.1887Z" fill="#862C2C"/>
</svg>
